<?xml version="1.0" encoding="UTF-8" standalone="no"?>
<!-- Created with Inkscape (http://www.inkscape.org/) -->

<svg
   width="79.375008mm"
   height="79.375mm"
   viewBox="0 0 79.37501 79.374998"
   version="1.1"
   id="svg1"
   xml:space="preserve"
   xmlns:inkscape="http://www.inkscape.org/namespaces/inkscape"
   xmlns:sodipodi="http://sodipodi.sourceforge.net/DTD/sodipodi-0.dtd"
   xmlns="http://www.w3.org/2000/svg"
   xmlns:svg="http://www.w3.org/2000/svg"><sodipodi:namedview
     id="namedview1"
     pagecolor="#505050"
     bordercolor="#eeeeee"
     borderopacity="1"
     inkscape:showpageshadow="0"
     inkscape:pageopacity="0"
     inkscape:pagecheckerboard="0"
     inkscape:deskcolor="#505050"
     inkscape:document-units="mm"
     showborder="false" /><defs
     id="defs1" /><g
     inkscape:label="Layer 1"
     inkscape:groupmode="layer"
     id="layer1"
     transform="translate(-69.028022,-41.71106)"><rect
       style="fill:#e2e8f0;fill-opacity:1;stroke-width:0.115952;stroke-linecap:square;paint-order:markers fill stroke"
       id="rect1"
       width="79.375"
       height="79.375"
       x="69.028023"
       y="41.71106"
       inkscape:export-filename="reactjs1.svg"
       inkscape:export-xdpi="96"
       inkscape:export-ydpi="96" /><g
       style="fill:none"
       id="g7"
       transform="matrix(2.2646503,0,0,2.2646503,72.481119,42.899503)"><path
         d="M 6,28 4,3 h 24 l -2,25 -10,3 z"
         fill="#1172b8"
         id="path1-7" /><path
         d="M 26,5 H 16 V 29.5 L 24,27 Z"
         fill="#33aadd"
         id="path2-9" /><path
         d="M 19.5,17.5 H 9.5 L 9,14 17,11.5 H 9 L 8.5,8.5 H 24 L 23.5,12 17,14.5 h 6 L 22,24 16,26 10,24 9.5,19 h 3 l 0.5,2.5 3,1 3,-1 z"
         fill="#ffffff"
         id="path3-2" /></g></g></svg>
