<?xml version="1.0" encoding="UTF-8" standalone="no"?>
<!-- Created with Inkscape (http://www.inkscape.org/) -->

<svg
   width="79.375mm"
   height="79.375mm"
   viewBox="0 0 79.375002 79.374998"
   version="1.1"
   id="svg1"
   xml:space="preserve"
   xmlns:inkscape="http://www.inkscape.org/namespaces/inkscape"
   xmlns:sodipodi="http://sodipodi.sourceforge.net/DTD/sodipodi-0.dtd"
   xmlns="http://www.w3.org/2000/svg"
   xmlns:svg="http://www.w3.org/2000/svg"><sodipodi:namedview
     id="namedview1"
     pagecolor="#505050"
     bordercolor="#eeeeee"
     borderopacity="1"
     inkscape:showpageshadow="0"
     inkscape:pageopacity="0"
     inkscape:pagecheckerboard="0"
     inkscape:deskcolor="#505050"
     inkscape:document-units="mm"
     showborder="false" /><defs
     id="defs1" /><g
     inkscape:label="Layer 1"
     inkscape:groupmode="layer"
     id="layer1"
     transform="translate(-67.751388,-41.549103)"><rect
       style="fill:#e2e8f0;fill-opacity:1;stroke-width:0.115952;stroke-linecap:square;paint-order:markers fill stroke"
       id="rect1"
       width="79.375"
       height="79.375"
       x="67.751389"
       y="41.549103" /><g
       id="g4"
       transform="matrix(0.49999985,0,0,0.46849882,75.438952,51.252918)"><path
         d="m 64.347,41.619 v 4.2915 H 44.872 l -0.02875,-0.02794 -0.02794,0.02794 h -38.119 a 0.069444,0.069444 0 0 0 -0.069437,0.06944 v 18.955 h -6.127 v 0.41662 h 6.127 v 18.717 A 0.069444,0.069444 0 0 0 6.69631,84.138 h 18.837 v 8.5399 h 0.41662 V 84.138 h 18.685 v 0.06971 h 0.11039 l 0.0971,0.09737 0.10063,-0.09737 h 0.1085 V 84.138 h 19.295 v 3.0463 h 0.41662 V 84.138 h 19.377 v 0.06971 h 0.1085 l 0.10063,0.09737 0.0971,-0.09737 h 0.11039 V 84.138 h 18.674 v 4.1551 h 0.41662 V 84.138 h 18.849 a 0.069444,0.069444 0 0 0 0.0694,-0.06944 v -18.717 h 4.9341 v -0.41662 h -4.9341 v -18.955 a 0.069444,0.069444 0 0 0 -0.0694,-0.06944 h -18.849 v -0.01302 h -0.41662 v 0.01302 h -18.853 L 84.34985,45.88256 84.3211,45.9105 H 64.7641 V 41.619 Z M 6.863,46.0494 h 18.67 v 18.709 z m 19.087,0 h 18.685 v 0.04042 l -18.685,18.656 z m 19.102,0 h 19.295 v 18.706 L 45.052,46.0844 Z m 19.712,0 h 19.377 v 0.03553 l -19.377,18.75 z m 19.793,0 h 18.674 v 18.685 L 84.557,46.0894 Z m 19.09,0 h 18.682 l -18.682,18.721 z m -96.882,0.09846 18.747,18.787 H 6.765 Z m 115.66,0 v 18.787 h -18.747 z m -77.375,0.13019 19.28,18.657 H 45.05 Z m 39.088,0 v 18.657 h -19.28 z m -39.505,0.0081 v 18.648 H 25.956 Z m 39.922,0 18.674,18.645 v 0.0035 H 84.555 Z m -77.791,19.065 h 18.578 l -18.578,18.55 z m 19.359,0 h 18.51 v 18.549 z m 18.927,0 h 19.178 l -19.178,18.558 z m 19.911,0 h 19.178 v 18.558 z m 19.595,0 h 18.51 l -18.51,18.549 z m 19.09,0 h 0.004 l 18.676,18.648 h -18.681 z m 0.20099,0 h 18.578 v 18.55 z m -39.085,0.0011 19.27,18.647 h -19.27 z m -39.23,0.0062 v 18.64 h -18.669 z m 0.41662,0.01383 18.588,18.626 h -18.588 z m 77.281,0.01139 v 18.615 h -18.576 z m -38.884,0.04774 v 18.567 h -19.188 z"
         fill="#cecece"
         id="path1" /><path
         d="m 64.556,51.492 c -0.36077,0 -0.72168,0.13743 -0.99653,0.41228 -0.52992,0.52992 -0.54737,1.3783 -0.0556,1.9312 l -33.827,19.228 0.03608,0.06076 c 2.157,3.643 4.7912,6.9835 8.055,9.9235 l 0.05208,0.04692 0.04638,-0.05235 25.746,-29.097 c 0.55266,0.50018 1.4076,0.48539 1.9404,-0.04747 0.54971,-0.54971 0.54971,-1.4431 0,-1.9928 -0.27485,-0.27486 -0.63549,-0.41228 -0.99626,-0.41228 z m 0,0.13806 c 0.32494,0 0.64975,0.12409 0.89807,0.37241 0.49664,0.49664 0.49664,1.2998 0,1.7964 -0.49664,0.49664 -1.2998,0.49664 -1.7964,0 -0.49664,-0.49664 -0.49664,-1.2998 0,-1.7964 0.24832,-0.24832 0.5734,-0.37241 0.89834,-0.37241 z m 48.339,0.42639 v 0.13887 h 1.5501 v 30.911 h -1.5501 v 0.13887 h 3.2389 v -0.13887 h -1.5498 v -30.911 h 1.5498 v -0.13887 z m -93.671,0.51291 -0.06944,0.003 h -0.003 c -0.0235,10e-4 -0.04704,0.0022 -0.07052,0.0035 l -0.06537,0.0038 v 4.1144 l 0.07676,-0.0081 c 0.02056,-0.0022 0.04144,-0.0036 0.06211,-0.0038 h 2.77e-4 c 0.35722,1.39e-4 0.64528,0.28829 0.64528,0.64555 7e-6,0.35726 -0.28805,0.64541 -0.64528,0.64555 -0.02094,-4.4e-5 -0.04209,-0.0012 -0.06293,-0.0033 l -0.07622,-0.0076 v 4.1152 l 0.06645,0.003 c 0.02348,9.72e-4 0.04703,0.0018 0.07052,0.0024 h 0.0019 c 2.6255,4.9e-5 4.7554,-2.1298 4.7554,-4.7553 4.8e-5,-2.6017 -2.0932,-4.7102 -4.6859,-4.7483 z m -0.06835,0.14186 c 2.5499,5.56e-4 4.6154,2.0664 4.6154,4.6165 4.7e-5,2.5503 -2.0657,4.6162 -4.6159,4.6165 -1.39e-4,-4e-6 -4.17e-4,6e-6 -5.55e-4,0 v -3.8321 c 0.43241,1e-5 0.78443,-0.35202 0.78442,-0.78442 8e-6,-0.43241 -0.35202,-0.78443 -0.78442,-0.78442 v -3.8318 c 4.16e-4,-1.7e-5 6.94e-4,-2.5e-4 0.0011,-2.78e-4 z m 59.98,0.19149 v 0.0035 c -1.3819,0.03719 -2.493,1.1678 -2.493,2.5586 0,1.3908 1.1111,2.5214 2.493,2.5586 v 13.596 c -0.002,-6e-6 -0.004,-2.78e-4 -0.006,-2.78e-4 -1.4143,-3e-6 -2.5621,1.1479 -2.5621,2.5621 -10e-7,1.4143 1.1479,2.5624 2.5621,2.5624 1.4143,0 2.5624,-1.1481 2.5624,-2.5624 0,-1.3653 -1.071,-2.4792 -2.4175,-2.5548 v -13.603 c 1.3819,-0.03719 2.4927,-1.1678 2.4927,-2.5586 0,-1.3908 -1.1108,-2.5214 -2.4927,-2.5586 v -0.0035 z m 0,0.1424 v 4.8394 c -1.3067,-0.03704 -2.3541,-1.104 -2.3541,-2.4197 0,-1.3158 1.0473,-2.3827 2.3541,-2.4197 z m 0.13887,0 c 1.3067,0.03704 2.3538,1.104 2.3538,2.4197 0,1.3158 -1.0471,2.3827 -2.3538,2.4197 z m -16.016,1.0896 -25.448,28.76 c -3.21,-2.902 -5.8079,-6.1934 -7.9402,-9.7825 z m -31.086,0.85332 v 3.2389 h 0.13887 v -1.5499 h 6.5648 v 1.5499 h 0.13887 v -3.2389 h -0.13887 v 1.5501 h -6.5648 v -1.5501 z m 24.894,12.705 v 0.13887 h 1.5501 v 10.069 h -1.5501 v 0.13887 h 3.2389 V 77.9009 h -1.5499 v -10.069 h 1.5499 v -0.13887 z m 22.063,4.0645 c 0.002,-10e-7 0.004,2.78e-4 0.006,2.78e-4 v 4.8462 c -0.002,5e-6 -0.004,2.77e-4 -0.006,2.77e-4 -1.3392,0 -2.4232,-1.0843 -2.4232,-2.4235 0,-1.3392 1.084,-2.4232 2.4232,-2.4232 z m 0.14484,0.0073 c 1.2713,0.07521 2.2787,1.1256 2.2787,2.4159 0,1.2903 -1.0074,2.341 -2.2787,2.4162 z m 13.243,0.43561 v 3.2389 h 0.13887 v -1.5501 h 12.023 v 1.5501 h 0.13887 v -3.2389 h -0.13887 v 1.5499 h -12.023 v -1.5499 z"
         fill="#6c6c6c"
         id="path2" /><path
         d="m 81.067,45.112 c -0.09946,-8.89e-4 -0.19843,-4.58e-4 -0.29674,0.0011 -1.5153,0.02396 -4.7619,0.01795 -7.6695,1.334 -2.9076,1.316 -5.4641,4.0435 -5.4641,9.2476 0,2.1998 0.73464,4.101 1.8867,5.7299 h -23.211 v -10.511 h 15.238 v -5.3507 h -21.365 v 5.3507 h 0.0016 v 10.511 h -0.0016 v 5.351 h 0.0016 v 12.456 l -3.5798,-0.02143 -4.9539,0.02278 -7.755,-12.048 c 1.8177,-0.74956 3.5966,-1.8279 4.9658,-3.3387 1.4892,-1.6432 2.4864,-3.7902 2.4864,-6.4468 v -0.76408 c 0,-3.8875 -1.4825,-6.6762 -3.9001,-8.4542 -2.4176,-1.778 -5.7247,-2.5638 -9.4006,-2.6476 h -11.8 v 5.4112 h 0.030159 v 12.708 H 6.249811 v 5.0513 h 0.030108 v 15.854 h 6.1256 v -15.87 l 6.1604,-0.01736 8.4575,13.759 0.01193,0.016 c 0.71617,0.94845 2.2048,3.0543 4.6105,4.5709 l 0.2037,0.12857 4.8617,-2.564 3.8936,-0.02333 h 20.944 v -5.5609 h -15.237 v -12.222 h 30.129 c 0.01106,0.0052 0.01931,0.0092 0.03119,0.01465 1.8665,0.85339 4.132,1.6256 5.8956,2.7382 1.7636,1.1125 2.9969,2.4888 2.9969,4.6753 0,2.3534 -1.0619,3.5857 -2.5589,4.3336 -1.497,0.7479 -3.4534,0.93306 -5.064,0.93306 h -0.0028 c -3.087,0.01916 -6.7181,-1.2924 -9.8188,-2.3278 l -0.54844,-0.18309 v 5.8834 l 0.24384,0.11121 c 3.0434,1.3874 7.5514,1.9289 10.135,1.8306 1.8531,-9.72e-4 5.2375,-0.36382 8.225,-1.8591 2.9915,-1.4972 5.5845,-4.2095 5.5845,-8.7219 0,-3.492 -1.3144,-5.9958 -3.1534,-7.7878 -1.839,-1.7919 -4.1825,-2.8912 -6.2751,-3.7065 l -8.19e-4,-2.78e-4 -5.42e-4,-2.78e-4 c -0.7937,-0.30608 -2.299,-0.9071 -3.7957,-1.7218 -1.4944,-0.81348 -2.9719,-1.8536 -3.7103,-2.944 -0.4595,-0.74598 -0.74286,-1.5768 -0.79256,-2.3617 0.0044,-2.3794 1.1134,-3.6626 2.5496,-4.4196 1.4391,-0.75844 3.2316,-0.91934 4.4019,-0.83487 2.3554,0.17001 6.4131,1.4988 7.711,2.053 l 0.4131,0.1763 0.60079,-1.7649 h 16.244002 v 33.667 h 6.1256 v -33.667 h 11.011 v -5.3038 h -11.011 v -0.0236 h -6.1256 v 0.0236 H 84.584908 c -1.1756,-0.28384 -2.3573,-0.46504 -3.5188,-0.47548 z m -0.0076,0.83324 c 1.0998,0.0099 2.2408,0.18255 3.3897,0.46355 l 0.04882,0.01194 h 22.089 v -0.0236 h 4.4592 v 0.0236 h 11.011 v 3.6373 h -11.011 v 33.667 h -4.4592 v -33.667 h -17.674 l -0.50938,1.497 c -1.6373,-0.6495 -5.1548,-1.7857 -7.5586,-1.9592 -1.3007,-0.09389 -3.2078,0.06293 -4.8506,0.92872 -1.6427,0.86579 -2.9953,2.5105 -2.9953,5.1701 v 0.01248 l 8.19e-4,0.01275 c 0.05757,0.9537 0.39266,1.914 0.92221,2.7704 l 0.0043,0.0071 0.0046,0.0068 c 0.88251,1.3074 2.4554,2.3702 4.0067,3.2147 1.5514,0.84447 3.0889,1.4569 3.8939,1.7674 2.0511,0.79916 4.2887,1.8638 5.9949,3.5264 1.7066,1.6629 2.9017,3.9047 2.9017,7.1911 0,4.1997 -2.3126,6.5696 -5.1242,7.9768 -2.8117,1.4072 -6.1217,1.7715 -7.8608,1.7715 h -0.0081 l -0.0079,2.78e-4 c -2.3569,0.09074 -6.6803,-0.44192 -9.5207,-1.6597 v -4.1757 c 2.9689,1.0013 6.4059,2.2062 9.5395,2.1867 1.6703,-1.38e-4 3.7322,-0.17082 5.4337,-1.0209 1.7024,-0.85056 3.0197,-2.4597 3.0197,-5.0789 0,-2.5097 -1.4992,-4.1903 -3.3856,-5.3803 -1.8864,-1.19 -4.1886,-1.9658 -5.9936,-2.791 -0.0316,-0.01445 -0.06825,-0.03215 -0.11012,-0.05153 l -0.08327,-0.03852 h -31.147 v 13.888 h 15.237 v 3.8944 h -20.114 l -4.0998,0.02441 -4.6062,2.4292 c -2.1169,-1.3966 -3.4676,-3.2698 -4.1844,-4.2199 l -8.681,-14.122 -7.4585,0.02061 v 15.868 h -4.4592 v -15.854 H 7.083571 v -3.3848 h 0.030108 v -14.375 H 7.083571 v -3.7447 h 10.948 c 3.5677,0.08126 6.7076,0.85422 8.9259,2.4856 2.2183,1.6314 3.5605,4.1028 3.5605,7.7829 v 0.76408 c 0,2.4505 -0.89759,4.3723 -2.2705,5.8872 -1.3729,1.5149 -3.2316,2.6104 -5.1196,3.3248 l -0.4798,0.18161 c 2.8628,4.4171 5.7035,8.8487 8.5524,13.275 l 5.4069,-0.02495 4.4136,0.02631 v -14.127 h -0.0016 v -3.6845 h 0.0016 v -12.178 h -0.0016 v -3.6842 h 19.699 v 3.6842 h -15.238 v 12.178 h 25.726 l -0.55902,-0.68108 c -1.3488,-1.6431 -2.1767,-3.5777 -2.1767,-5.8821 0,-4.9391 2.2818,-7.2701 4.9742,-8.4887 2.6924,-1.2186 5.8075,-1.2354 7.3392,-1.2596 0.09212,-0.0015 0.18424,-0.0019 0.27612,-0.0011 z m -69.487,4.1665 v 14.375 h 5.0564 c 2.1262,0 4.3615,-0.31202 6.1129,-1.3668 1.7514,-1.0547 2.9736,-2.9004 2.9736,-5.7199 v -0.76408 c 0,-2.8548 -1.6037,-4.5536 -3.3362,-5.4513 -1.7325,-0.89779 -3.5777,-1.0725 -4.3387,-1.0725 z m 0.83324,0.83324 h 5.6347 c 0.62035,0 2.4042,0.17503 3.9555,0.9789 1.5513,0.80387 2.8862,2.1587 2.8862,4.7117 v 0.76408 c 0,2.5883 -1.0288,4.0777 -2.5703,5.006 -1.5415,0.9283 -3.6409,1.2474 -5.683,1.2474 h -4.2232 z"
         fill="#7f2d2d"
         id="path3" /><path
         d="m 12.074,28.415 a 0.13889,0.13889 0 0 0 -0.13887,0.13887 v 2.7444 c 0,0.14744 0.0092,0.33363 0.02685,0.56092 0.0075,0.09593 0.01505,0.14935 0.02251,0.22838 -0.10936,-0.12435 -0.20838,-0.25643 -0.3442,-0.36102 -0.21961,-0.17329 -0.47933,-0.30974 -0.77655,-0.40984 -0.30238,-0.10184 -0.65005,-0.15108 -1.0426,-0.15108 -0.93303,0 -1.7021,0.31987 -2.2705,0.95259 -0.57313,0.63368 -0.85006,1.5614 -0.85006,2.762 0,1.1879 0.27019,2.1055 0.83026,2.7311 a 0.13889,0.13889 0 0 0 2.778e-4,2.78e-4 c 0.5605,0.62095 1.3297,0.93333 2.2705,0.93333 0.4010902,0 0.7528902,-0.04911 1.0557002,-0.15108 a 0.13889,0.13889 0 0 0 0.0011,-2.77e-4 c 0.30145,-0.10434 0.56336,-0.24484 0.78307,-0.42259 l 2.78e-4,-2.78e-4 c 0.15299,-0.12138 0.26388,-0.26659 0.38055,-0.40848 l 0.12504,0.74211 a 0.13889,0.13889 0 0 0 0.13698,0.11582 h 0.88017 a 0.13889,0.13889 0 0 0 0.13887,-0.13887 v -9.7274 a 0.13889,0.13889 0 0 0 -0.13887,-0.13887 z m 4.1147,0.31274 c -0.21589,0 -0.41232,0.06873 -0.56472,0.2037 -0.15962,0.14108 -0.23082,0.35882 -0.23082,0.61652 0,0.25398 0.07168,0.47058 0.22893,0.6149 a 0.13889,0.13889 0 0 0 0.0016,0.0016 c 0.15243,0.13508 0.34902,0.20397 0.56499,0.20397 0.20801,0 0.39953,-0.0698 0.55061,-0.20316 0.16622,-0.14284 0.2452,-0.36191 0.2452,-0.61734 0,-0.25872 -0.07859,-0.47866 -0.24656,-0.61815 -0.1509,-0.13266 -0.3418,-0.20207 -0.54926,-0.20207 z m 21.769,2.2974 c -0.59268,0 -1.1051,0.09405 -1.5347,0.28751 -0.42877,0.19308 -0.76444,0.47963 -0.99382,0.85359 -0.2301,0.37098 -0.34257,0.81766 -0.34258,1.3296 0,0.4858 0.12341,0.92213 0.37106,1.2957 a 0.13889,0.13889 0 0 0 0.0011,0.0016 c 0.2028,0.29669 0.47137,0.50851 0.77438,0.66833 -0.2149,0.14386 -0.3997,0.29306 -0.5262,0.45595 a 0.13889,0.13889 0 0 0 -5.56e-4,2.78e-4 c -0.16273,0.21121 -0.24547,0.4645 -0.24547,0.74129 0,0.24472 0.0773,0.47133 0.22675,0.66101 a 0.13889,0.13889 0 0 0 0.0014,0.0016 c 0.07898,0.097 0.16842,0.18005 0.265,0.25225 -0.38353,0.1191 -0.72122,0.287 -0.96724,0.546 a 0.13889,0.13889 0 0 0 -8.33e-4,8.19e-4 c -0.30688,0.32804 -0.46436,0.73512 -0.46436,1.1951 0,0.6432 0.28692,1.1681 0.8308,1.5225 1.39e-4,1.07e-4 4.16e-4,1.66e-4 5.55e-4,2.77e-4 l 2.78e-4,2.78e-4 c 0.54504,0.35884 1.3011,0.52864 2.2629,0.52864 1.2413,0 2.2032,-0.20202 2.8846,-0.6271 0.68114,-0.42491 1.0372,-1.064 1.0372,-1.8621 0,-0.63231 -0.23149,-1.1422 -0.68569,-1.4801 l -5.55e-4,-2.78e-4 c -0.44943,-0.3375 -1.0807,-0.49637 -1.8827,-0.49637 h -1.2678 c -0.22012,0 -0.40548,-0.01637 -0.55468,-0.04692 -0.14441,-0.03366 -0.24505,-0.08412 -0.30894,-0.14132 -0.05428,-0.05211 -0.0811,-0.11287 -0.0811,-0.21672 0,-0.1504 0.04274,-0.27318 0.13318,-0.38733 0.09282,-0.11184 0.23878,-0.21972 0.42422,-0.32088 0.19554,0.02818 0.38886,0.04692 0.57801,0.04692 0.87126,0 1.5746,-0.20668 2.0912,-0.63198 a 0.13889,0.13889 0 0 0 5.56e-4,-2.78e-4 c 0.5156,-0.42886 0.77927,-1.022 0.77927,-1.7384 0,-0.29372 -0.04621,-0.56556 -0.1405,-0.81236 -0.06238,-0.16329 -0.15239,-0.2906 -0.2376,-0.42422 l 1.1224,-0.13236 a 0.13889,0.13889 0 0 0 0.1226,-0.13779 v -0.66882 a 0.13889,0.13889 0 0 0 -0.13887,-0.13887 h -2.4566 c -0.08928,-0.02418 -0.18724,-0.04484 -0.29945,-0.06076 -0.1231,-0.02161 -0.25236,-0.03644 -0.38733,-0.04503 h -5.55e-4 c -0.12977,-0.01262 -0.25952,-0.01926 -0.3895,-0.01926 z m -15.918,0.02496 c -0.47536,0 -0.92977,0.05777 -1.3624,0.17359 -0.42747,0.11443 -0.80802,0.25274 -1.1416,0.41581 a 0.13889,0.13889 0 0 0 -0.06673,0.17902 l 0.33471,0.78768 a 0.13889,0.13889 0 0 0 0.18607,0.07188 c 0.30045,-0.1389 0.61842,-0.25966 0.95422,-0.3621 0.32789,-0.10003 0.6729,-0.15027 1.0367,-0.15027 0.46341,0 0.80166,0.1114 1.0375,0.32115 0.22429,0.19948 0.35396,0.56938 0.35396,1.1403 v 0.28534 l -1.108,0.04475 c -1.1777,0.03389 -2.0668,0.23306 -2.6703,0.62195 -0.60223,0.38802 -0.9176,0.97021 -0.9176,1.6923 0,0.47388 0.10097,0.87788 0.31138,1.201 a 0.13889,0.13889 0 0 0 8.33e-4,0.0014 c 0.21148,0.31758 0.50249,0.55755 0.862,0.71309 a 0.13889,0.13889 0 0 0 5.56e-4,2.77e-4 c 0.36127,0.1543 0.7703,0.22974 1.2236,0.22974 0.42523,0 0.7877,-0.04198 1.0898,-0.13046 a 0.13889,0.13889 0 0 0 0.0011,-2.78e-4 c 0.30308,-0.09179 0.5728,-0.22642 0.80585,-0.40387 a 0.13889,0.13889 0 0 0 0.0014,-0.0011 c 0.17647,-0.13774 0.34084,-0.31992 0.5045,-0.50477 l 0.16735,0.80504 a 0.13889,0.13889 0 0 0 0.13589,0.11066 h 0.79473 a 0.13889,0.13889 0 0 0 0.13887,-0.13887 v -4.6574 c 0,-0.82827 -0.21703,-1.4606 -0.67077,-1.8607 -0.45151,-0.39809 -1.1254,-0.58506 -2.0034,-0.58506 z m 8.3739,0.11555 c -0.33637,0 -0.65847,0.04584 -0.96507,0.13725 -0.30676,0.08729 -0.58617,0.21871 -0.83541,0.39438 l -2.78e-4,2.78e-4 c -0.18132,0.12485 -0.33217,0.28022 -0.46789,0.44944 l -0.12287,-0.73994 a 0.13889,0.13889 0 0 0 -0.13698,-0.11609 h -0.88017 a 0.13889,0.13889 0 0 0 -0.13887,0.13887 v 6.8515 a 0.13889,0.13889 0 0 0 0.13887,0.13887 h 1.0904 a 0.13889,0.13889 0 0 0 0.13887,-0.13887 v -3.5885 c 0,-0.79851 0.15937,-1.3899 0.45785,-1.7853 0.29105,-0.38558 0.79853,-0.58886 1.5705,-0.58886 0.5416,0 0.91592,0.13351 1.1541,0.38218 a 0.13889,0.13889 0 0 0 8.34e-4,8.33e-4 c 0.24335,0.25001 0.37458,0.63619 0.37458,1.1848 v 4.3949 a 0.13889,0.13889 0 0 0 0.13887,0.13887 h 1.0771 a 0.13889,0.13889 0 0 0 0.13887,-0.13887 v -4.4635 c 0,-0.90204 -0.22654,-1.5853 -0.70196,-2.0156 l -2.78e-4,-2.78e-4 c -0.47104,-0.43024 -1.1557,-0.63632 -2.031,-0.63632 z m 15.529,0.01301 c -0.70623,0 -1.3248,0.14393 -1.8477,0.43642 -0.51843,0.2883 -0.92067,0.71376 -1.1989,1.2651 -0.2791,0.54887 -0.41554,1.2089 -0.41554,1.9754 0,0.57556 0.08047,1.094 0.24438,1.5534 a 0.13889,0.13889 0 0 0 2.78e-4,0.0011 c 0.16765,0.45715 0.40313,0.8477 0.7063,1.1669 a 0.13889,0.13889 0 0 0 5.55e-4,5.42e-4 c 0.30657,0.31793 0.66998,0.56312 1.0855,0.73262 a 0.13889,0.13889 0 0 0 0.0016,8.19e-4 c 0.42039,0.16527 0.88076,0.2471 1.3776,0.2471 0.53086,0 1.0105,-0.08154 1.4362,-0.2471 a 0.13889,0.13889 0 0 0 5.56e-4,-2.78e-4 c 0.42884,-0.16935 0.7973,-0.41459 1.1004,-0.7337 0.30364,-0.31966 0.53522,-0.71104 0.6941,-1.169 0.15924,-0.45904 0.23733,-0.97709 0.23733,-1.5523 0,-0.7631 -0.14119,-1.422 -0.42964,-1.9711 -0.2825,-0.55023 -0.68628,-0.977 -1.2038,-1.2691 l -2.78e-4,-2.78e-4 c -0.51348,-0.29233 -1.1127,-0.43644 -1.7891,-0.43644 z m -30.312,0.11229 a 0.13889,0.13889 0 0 0 -0.13887,0.13887 v 7.9579 c 0,0.39633 -0.08928,0.63821 -0.22757,0.7573 -0.15579,0.13416 -0.35885,0.20397 -0.63198,0.20397 -0.16857,0 -0.31813,-0.01202 -0.44836,-0.03526 a 0.13889,0.13889 0 0 0 -0.0041,-8.19e-4 c -0.13329,-0.01982 -0.2645,-0.04934 -0.39357,-0.08897 a 0.13889,0.13889 0 0 0 -0.17956,0.13265 v 0.84409 a 0.13889,0.13889 0 0 0 0.09412,0.13128 c 0.13091,0.0445 0.28194,0.08142 0.45297,0.11148 0.17782,0.03548 0.38059,0.05235 0.61002,0.05235 0.46302,0 0.85469,-0.08183 1.1701,-0.25469 0.3129,-0.17147 0.55085,-0.42548 0.70251,-0.74997 v -2.78e-4 c 0.15084,-0.31864 0.2235,-0.69585 0.2235,-1.1281 v -7.9329 a 0.13889,0.13889 0 0 0 -0.13887,-0.13887 z m 22.288,0.7809 c 0.49807,0 0.85079,0.12149 1.0855,0.34854 a 0.13889,0.13889 0 0 0 8.33e-4,8.33e-4 c 0.23334,0.2221 0.35749,0.56119 0.35749,1.0497 0,0.45389 -0.12037,0.77378 -0.35098,0.99327 -0.22952,0.21846 -0.58097,0.33688 -1.0798,0.33688 -0.48054,0 -0.8284,-0.11716 -1.0684,-0.33823 -0.23979,-0.22087 -0.36237,-0.53334 -0.36237,-0.9732 0,-0.48413 0.124,-0.82643 0.35912,-1.0576 0.24112,-0.2369 0.58423,-0.3602 1.0586,-0.3602 z M 9.9726,32.3062 c 0.77432,0 1.2668,0.21684 1.5385,0.6366 a 0.13889,0.13889 0 0 0 5.55e-4,8.33e-4 c 0.28475,0.43364 0.43696,1.0759 0.43696,1.9307 v 0.18743 c 0,0.80301 -0.15771,1.3902 -0.45053,1.772 -0.28682,0.37396 -0.77984,0.57068 -1.5254,0.57068 -0.64244,0 -1.0911,-0.20747 -1.3977,-0.62927 l -2.777e-4,-5.41e-4 -2.778e-4,-2.78e-4 c -0.3046,-0.4257 -0.46599,-1.0455 -0.46599,-1.8688 0,-0.82782 0.16325,-1.4656 0.47494,-1.9223 a 0.13889,0.13889 0 0 0 2.777e-4,-5.56e-4 c 0.30853,-0.45595 0.75305,-0.67647 1.389,-0.67647 z m 35.944,0.02522 c 0.48817,0 0.87228,0.10355 1.1636,0.30108 0.2953,0.20021 0.51277,0.48229 0.65748,0.8601 a 0.13889,0.13889 0 0 0 2.78e-4,5.56e-4 c 0.14551,0.37592 0.22052,0.82949 0.22052,1.3624 0,0.5372 -0.07521,0.99776 -0.22106,1.3825 -0.14473,0.38178 -0.36414,0.66789 -0.66399,0.8723 a 0.13889,0.13889 0 0 0 -8.33e-4,5.42e-4 c -0.29181,0.20165 -0.67054,0.3065 -1.1492,0.3065 -0.48325,0 -0.86447,-0.10503 -1.156,-0.3065 -0.29558,-0.20426 -0.51341,-0.49067 -0.6583,-0.87284 -0.14583,-0.38469 -0.22079,-0.84525 -0.22079,-1.3825 0,-0.81383 0.16908,-1.4343 0.49148,-1.8737 l 2.78e-4,-2.77e-4 c 1.15e-4,-1.39e-4 1.25e-4,-4.17e-4 2.78e-4,-5.56e-4 0.32204,-0.43241 0.8171,-0.64962 1.5363,-0.64962 z m -22.558,2.5903 v 0.48714 c 0,0.64723 -0.18846,1.1035 -0.56065,1.4121 -0.37972,0.31478 -0.86612,0.4744 -1.481,0.4744 -0.39053,0 -0.68816,-0.08786 -0.90838,-0.25334 -0.21244,-0.15963 -0.31898,-0.39583 -0.31898,-0.75811 0,-0.41227 0.15488,-0.70432 0.49013,-0.92845 0.3268,-0.21848 0.94031,-0.36257 1.826,-0.39547 a 0.13889,0.13889 0 0 0 2.78e-4,0 z m 13.988,3.2264 h 1.248 c 0.36148,0 0.66413,0.02513 0.90567,0.07269 a 0.13889,0.13889 0 0 0 0.0022,2.78e-4 c 0.23377,0.0422 0.39573,0.1234 0.50152,0.23381 0.10044,0.10887 0.15922,0.2771 0.15922,0.52946 0,0.26513 -0.08309,0.47968 -0.25822,0.6686 a 0.13889,0.13889 0 0 0 -0.0022,0.0022 c -0.16934,0.19048 -0.43734,0.34472 -0.81453,0.45243 a 0.13889,0.13889 0 0 0 -0.0016,5.41e-4 c -0.37108,0.11112 -0.85142,0.16925 -1.4378,0.16925 -0.59369,0 -1.0385,-0.09793 -1.3345,-0.27449 a 0.13889,0.13889 0 0 0 -0.0011,-5.42e-4 c -0.29471,-0.17205 -0.42367,-0.394 -0.42367,-0.72394 0,-0.25778 0.05731,-0.46077 0.166,-0.62168 0.1148,-0.16343 0.2755,-0.28721 0.49501,-0.37458 0.22094,-0.08794 0.48577,-0.13399 0.79609,-0.13399 z m 18.12,51.362 c -0.50654,0 -0.94477,0.08819 -1.3101,0.27097 -0.36779,0.18401 -0.65235,0.4761 -0.84355,0.862 v 2.78e-4 l -2.78e-4,2.78e-4 c -0.19266,0.38491 -0.28372,0.87264 -0.28372,1.462 v 0.35017 l -1.1712,0.31599 a 0.13889,0.13889 0 0 0 -0.1028,0.13426 v 0.49989 a 0.13889,0.13889 0 0 0 0.13887,0.13887 h 1.1351 v 5.9 a 0.13889,0.13889 0 0 0 0.13887,0.13887 h 1.0904 a 0.13889,0.13889 0 0 0 0.13887,-0.13887 v -5.9 h 1.654 a 0.13889,0.13889 0 0 0 0.13887,-0.13887 v -0.81263 a 0.13889,0.13889 0 0 0 -0.13887,-0.13887 h -1.654 v -0.36129 c 0,-0.52908 0.0987,-0.89891 0.26609,-1.1151 l 2.78e-4,-2.77e-4 c 0.17288,-0.22158 0.42938,-0.33362 0.81643,-0.33362 0.18266,0 0.36037,0.01949 0.53407,0.05886 a 0.13889,0.13889 0 0 0 0.0035,8.33e-4 c 0.18445,0.03674 0.34863,0.07763 0.49203,0.12179 a 0.13889,0.13889 0 0 0 0.17224,-0.08734 l 0.28236,-0.81914 a 0.13889,0.13889 0 0 0 -0.08734,-0.17685 c -0.182,-0.06063 -0.39104,-0.11414 -0.62737,-0.16084 -0.23837,-0.04799 -0.49928,-0.07133 -0.78279,-0.07133 z m 61.107,0.06862 a 0.13889,0.13889 0 0 0 -0.13887,0.13887 v 9.7271 a 0.13889,0.13889 0 0 0 0.13887,0.13887 h 1.0839 a 0.13889,0.13889 0 0 0 0.13887,-0.13887 v -2.4186 l 0.71553,-0.62493 2.4514,3.1293 a 0.13889,0.13889 0 0 0 0.10931,0.05316 h 1.3136 a 0.13889,0.13889 0 0 0 0.10903,-0.22513 l -3.0303,-3.8293 2.8098,-2.8382 a 0.13889,0.13889 0 0 0 -0.0987,-0.23652 h -1.2808 a 0.13889,0.13889 0 0 0 -0.099,0.0415 l -2.3907,2.4254 a 0.13889,0.13889 0 0 0 -0.002,0.0019 c -0.12549,0.13224 -0.27804,0.30476 -0.45867,0.51861 a 0.13889,0.13889 0 0 0 -10e-4,0.0014 c -0.0797,0.09676 -0.11961,0.1436 -0.182,0.21862 0.005,-0.09255 0.008,-0.17016 0.0141,-0.27286 a 0.13889,0.13889 0 0 0 0,-2.78e-4 c 0.0132,-0.24341 0.0201,-0.44965 0.0201,-0.62005 v -5.051 a 0.13889,0.13889 0 0 0 -0.13887,-0.13887 z m -29.917,2.6226 c -0.66463,0 -1.2529,0.1519 -1.7538,0.45812 a 0.13889,0.13889 0 0 0 -5.42e-4,2.78e-4 c -0.49581,0.30587 -0.88276,0.7455 -1.1555,1.3079 a 0.13889,0.13889 0 0 0 0,2.78e-4 c -0.26907,0.55994 -0.40143,1.2191 -0.40143,1.973 0,0.7718 0.14588,1.4338 0.44402,1.9795 0.29656,0.54282 0.71688,0.96104 1.2523,1.2442 a 0.13889,0.13889 0 0 0 0.0011,5.55e-4 c 0.53914,0.27833 1.1668,0.41554 1.8764,0.41554 0.49264,0 0.92149,-0.03555 1.2881,-0.10877 0.36912,-0.07284 0.7395,-0.18848 1.111,-0.3461 a 0.13889,0.13889 0 0 0 0.08463,-0.12802 v -0.91244 a 0.13889,0.13889 0 0 0 -0.19149,-0.12857 c -0.37029,0.15163 -0.72658,0.26584 -1.0684,0.34312 -0.33767,0.07633 -0.73039,0.11528 -1.1777,0.11528 -0.71364,0 -1.2429,-0.1984 -1.6209,-0.58913 -0.3527,-0.36458 -0.54522,-0.8966 -0.57991,-1.6025 h 4.8212 a 0.13889,0.13889 0 0 0 0.13887,-0.13887 v -0.64392 c 0,-0.63826 -0.1194,-1.2028 -0.36265,-1.6876 v 5.56e-4 c -0.24302,-0.48881 -0.59853,-0.87391 -1.0586,-1.1454 -0.46229,-0.2728 -1.0142,-0.40686 -1.6467,-0.40686 z m 18.799,0 c -0.70623,0 -1.325,0.14392 -1.848,0.43642 -0.51846,0.28828 -0.92063,0.71369 -1.1989,1.2651 -0.27911,0.54889 -0.41554,1.2092 -0.41554,1.9757 0,0.57561 0.0808,1.094 0.24466,1.5534 a 0.13889,0.13889 0 0 0 2.8e-4,0.0011 c 0.16765,0.45715 0.40313,0.84743 0.7063,1.1666 a 0.13889,0.13889 0 0 0 5.6e-4,8.33e-4 c 0.3066,0.31796 0.67002,0.56286 1.0855,0.73234 a 0.13889,0.13889 0 0 0 0.002,5.55e-4 c 0.42037,0.16527 0.88049,0.24737 1.3774,0.24737 0.53085,0 1.0105,-0.08153 1.4362,-0.2471 a 0.13889,0.13889 0 0 0 5.6e-4,-2.78e-4 c 0.42877,-0.16933 0.79751,-0.41453 1.1007,-0.7337 0.30367,-0.31969 0.53497,-0.71109 0.69383,-1.169 0.15923,-0.45899 0.23761,-0.97677 0.23761,-1.552 0,-0.76313 -0.14149,-1.422 -0.42992,-1.9711 -0.28248,-0.5502 -0.68599,-0.97699 -1.2035,-1.2691 l -2.8e-4,-2.78e-4 c -0.51351,-0.29231 -1.1128,-0.43669 -1.7891,-0.43669 z m -39.097,0.01248 c -0.47536,0 -0.93002,0.05777 -1.3627,0.17359 -0.42747,0.11443 -0.80802,0.25247 -1.1416,0.41554 a 0.13889,0.13889 0 0 0 -0.06672,0.17929 l 0.33498,0.78768 a 0.13889,0.13889 0 0 0 0.18607,0.07161 c 0.30048,-0.13891 0.61816,-0.25967 0.95394,-0.3621 0.32787,-0.10002 0.67317,-0.15027 1.0369,-0.15027 0.46341,0 0.80166,0.11167 1.0375,0.32142 0.22429,0.19948 0.35397,0.56938 0.35397,1.1403 v 0.28534 l -1.1083,0.04476 0.0016,-2.78e-4 c -1.1786,0.03374 -2.0681,0.23314 -2.672,0.62222 -0.60223,0.38802 -0.9176,0.96994 -0.9176,1.692 0,0.47393 0.10128,0.87793 0.31165,1.201 a 0.13889,0.13889 0 0 0 8.33e-4,0.0014 c 0.21145,0.31754 0.50219,0.55754 0.86172,0.71309 a 0.13889,0.13889 0 0 0 5.56e-4,2.78e-4 c 0.36127,0.15429 0.7703,0.23001 1.2236,0.23001 0.42523,0 0.7877,-0.04225 1.0898,-0.13074 a 0.13889,0.13889 0 0 0 0.0011,-2.77e-4 c 0.30308,-0.09179 0.5728,-0.22642 0.80585,-0.40387 a 0.13889,0.13889 0 0 0 0.0014,-8.33e-4 c 0.17658,-0.13782 0.34103,-0.32032 0.50478,-0.50532 l 0.16708,0.80531 a 0.13889,0.13889 0 0 0 0.13589,0.11067 h 0.79473 a 0.13889,0.13889 0 0 0 0.13887,-0.13887 v -4.6574 c 0,-0.82828 -0.21703,-1.4606 -0.67077,-1.8607 -0.45149,-0.39807 -1.1251,-0.58479 -2.0031,-0.58479 z m -5.1622,0.11555 c -0.35845,0 -0.68979,0.06604 -0.9892,0.19963 a 0.13889,0.13889 0 0 0 -5.56e-4,2.78e-4 c -0.29022,0.13154 -0.54777,0.31009 -0.7695,0.53407 -1.39e-4,1.38e-4 -1.18e-4,4.16e-4 -2.78e-4,5.55e-4 -0.14654,0.14535 -0.25797,0.31747 -0.37594,0.48443 l -0.09059,-0.96805 a 0.13889,0.13889 0 0 0 -0.13833,-0.12585 h -0.90621 a 0.13889,0.13889 0 0 0 -0.13887,0.13887 v 6.8515 a 0.13889,0.13889 0 0 0 0.13887,0.13887 h 1.0966 a 0.13889,0.13889 0 0 0 0.13887,-0.13887 v -3.6758 c 0,-0.3399 0.05268,-0.64337 0.15542,-0.91326 a 0.13889,0.13889 0 0 0 0,-5.56e-4 c 0.10379,-0.27662 0.24521,-0.50788 0.42422,-0.69762 a 0.13889,0.13889 0 0 0 0.0011,-0.0011 c 0.18018,-0.19489 0.38616,-0.34086 0.62222,-0.44158 a 0.13889,0.13889 0 0 0 8.34e-4,-2.78e-4 c 0.24096,-0.10496 0.49476,-0.15732 0.7657,-0.15732 0.12086,0 0.25148,0.008 0.3914,0.02414 0.13965,0.01611 0.26508,0.03815 0.37648,0.06564 a 0.13889,0.13889 0 0 0 0.17088,-0.11528 l 0.13806,-0.96262 a 0.13889,0.13889 0 0 0 -0.10985,-0.15596 c -0.12934,-0.02638 -0.2747,-0.04573 -0.43642,-0.05859 h -8.34e-4 c -0.16076,-0.01687 -0.31561,-0.02522 -0.46409,-0.02522 z m 13.272,0 c -0.31907,0 -0.6223,0.04333 -0.90784,0.13101 -0.28562,0.08769 -0.54574,0.21788 -0.77764,0.39004 -0.16471,0.12228 -0.30261,0.27212 -0.42774,0.43425 l -0.12097,-0.7147 a 0.13889,0.13889 0 0 0 -0.13698,-0.11555 h -0.8799 a 0.13889,0.13889 0 0 0 -0.13887,0.13887 v 6.8515 a 0.13889,0.13889 0 0 0 0.13887,0.13887 h 1.0901 a 0.13889,0.13889 0 0 0 0.13887,-0.13887 v -3.6259 c 0,-0.52632 0.0626,-0.96328 0.18254,-1.3101 l 2.78e-4,-2.77e-4 c 5.2e-5,-1.39e-4 -5.3e-5,-4.17e-4 0,-5.56e-4 0.12312,-0.34718 0.31326,-0.59692 0.57502,-0.76679 0.25969,-0.16853 0.61445,-0.25876 1.0736,-0.25876 0.32002,0 0.57323,0.05948 0.76543,0.16925 a 0.13889,0.13889 0 0 0 0.0027,0.0014 c 0.19697,0.1066 0.33968,0.26284 0.43832,0.48443 a 0.13889,0.13889 0 0 0 8.19e-4,0.0019 c 0.10267,0.22175 0.15813,0.5102 0.15813,0.86688 v 4.4385 a 0.13889,0.13889 0 0 0 0.13887,0.13887 h 1.0836 a 0.13889,0.13889 0 0 0 0.13887,-0.13887 v -3.8323 c 0,-0.72645 0.15384,-1.2565 0.44103,-1.6057 0.28338,-0.34465 0.73944,-0.5243 1.4102,-0.5243 0.46867,0 0.79361,0.12717 1.0128,0.37241 a 0.13889,0.13889 0 0 0 0.0016,0.0016 c 0.22243,0.24091 0.3442,0.61672 0.3442,1.1498 v 4.4385 a 0.13889,0.13889 0 0 0 0.13887,0.13887 h 1.0771 a 0.13889,0.13889 0 0 0 0.13887,-0.13887 v -4.4885 c 0,-0.89208 -0.20648,-1.5657 -0.64582,-1.9933 l -2.71e-4,-2.78e-4 c -0.43529,-0.42765 -1.0745,-0.63334 -1.89,-0.63334 -0.50846,0 -0.9809,0.10204 -1.4115,0.30677 -1.8e-4,8.7e-5 -3.61e-4,1.25e-4 -5.41e-4,2.78e-4 -1.81e-4,8.6e-5 -3.61e-4,1.27e-4 -5.42e-4,2.77e-4 -0.38647,0.18024 -0.69141,0.4626 -0.93225,0.81317 -0.1809,-0.34724 -0.43438,-0.63117 -0.78334,-0.811 -0.39277,-0.20879 -0.87329,-0.30948 -1.4365,-0.30948 z m 39.352,0 c -0.35845,0 -0.68979,0.06604 -0.98921,0.19963 a 0.13889,0.13889 0 0 0 -5.5e-4,2.78e-4 c -0.29022,0.13154 -0.54777,0.31009 -0.76951,0.53407 -1.3e-4,1.38e-4 -1.1e-4,4.16e-4 -2.7e-4,5.55e-4 -0.14644,0.14524 -0.25794,0.31729 -0.37594,0.48416 l -0.0906,-0.96778 a 0.13889,0.13889 0 0 0 -0.13833,-0.12585 h -0.90648 a 0.13889,0.13889 0 0 0 -0.13888,0.13887 v 6.8515 a 0.13889,0.13889 0 0 0 0.13888,0.13887 h 1.0969 a 0.13889,0.13889 0 0 0 0.13888,-0.13887 v -3.6758 c 0,-0.3399 0.0527,-0.64337 0.15542,-0.91326 a 0.13889,0.13889 0 0 0 0,-5.56e-4 c 0.10382,-0.27669 0.24498,-0.50793 0.42394,-0.69762 a 0.13889,0.13889 0 0 0 0.001,-0.0011 c 0.18014,-0.19484 0.38641,-0.34085 0.6225,-0.44158 a 0.13889,0.13889 0 0 0 8.3e-4,-2.78e-4 c 0.24096,-0.10496 0.49476,-0.15732 0.7657,-0.15732 0.12087,0 0.25119,0.008 0.39113,0.02414 0.13968,0.01611 0.26541,0.03816 0.37675,0.06564 a 0.13889,0.13889 0 0 0 0.17088,-0.11528 l 0.13806,-0.96262 a 0.13889,0.13889 0 0 0 -0.10985,-0.15596 c -0.12934,-0.02638 -0.2747,-0.04573 -0.43642,-0.05859 h -8.4e-4 c -0.16075,-0.01687 -0.31561,-0.02522 -0.46409,-0.02522 z m -22.946,0.12531 a 0.13889,0.13889 0 0 0 -0.13345,0.17739 l 1.9836,6.8515 a 0.13889,0.13889 0 0 0 0.13345,0.10036 h 1.2282 a 0.13889,0.13889 0 0 0 0.13155,-0.09439 l 1.3391,-3.9671 2.78e-4,-8.34e-4 c 0.06215,-0.17329 0.11762,-0.3447 0.16654,-0.514 a 0.13889,0.13889 0 0 0 2.77e-4,-0.0011 c 0.0481,-0.17064 0.09179,-0.33272 0.13128,-0.48714 l 8.34e-4,-0.0035 c 0.02952,-0.10408 0.05195,-0.19506 0.07567,-0.28833 0.02464,0.093 0.0489,0.18354 0.07568,0.28833 a 0.13889,0.13889 0 0 0 0.0014,0.0046 c 0.04377,0.14999 0.08968,0.30815 0.13779,0.47467 a 0.13889,0.13889 0 0 0 0.0014,0.0041 c 0.05266,0.16291 0.10731,0.32997 0.16437,0.50125 l 1.2805,3.9872 a 0.13889,0.13889 0 0 0 0.13209,0.09629 h 1.2675 a 0.13889,0.13889 0 0 0 0.13345,-0.10009 l 1.990101,-6.8515 a 0.13889,0.13889 0 0 0 -0.13345,-0.17766 h -1.109901 a 0.13889,0.13889 0 0 0 -0.13372,0.10171 l -1.0508,3.7821 a 0.13889,0.13889 0 0 0 -2.78e-4,8.33e-4 c -0.07014,0.2587 -0.13819,0.51335 -0.20397,0.76381 a 0.13889,0.13889 0 0 0 -5.55e-4,0.0022 c -0.05947,0.24259 -0.1123,0.46356 -0.15949,0.66725 -0.05247,-0.20356 -0.11106,-0.41305 -0.1763,-0.62846 l -8.33e-4,-0.0024 c -0.06148,-0.21724 -0.12525,-0.4264 -0.19122,-0.62737 l -2.78e-4,-8.34e-4 -1.2805,-3.9628 a 0.13889,0.13889 0 0 0 -0.13209,-0.09602 h -1.1755 a 0.13889,0.13889 0 0 0 -0.13182,0.09493 l -1.3266,3.9696 a 0.13889,0.13889 0 0 0 0,2.78e-4 c -0.04877,0.14769 -0.09759,0.30563 -0.1462,0.47385 -0.04847,0.16362 -0.09478,0.32932 -0.13887,0.49718 a 0.13889,0.13889 0 0 0 -8.19e-4,0.0027 c -0.02731,0.11264 -0.05189,0.21576 -0.07703,0.32033 -0.0031,-0.01378 -0.0039,-0.02289 -0.0071,-0.03689 -0.04421,-0.21845 -0.09917,-0.44869 -0.16491,-0.69084 l -8.19e-4,-0.0027 c -0.06138,-0.2461 -0.12682,-0.49406 -0.19692,-0.74428 l -2.78e-4,-5.55e-4 -1.0375,-3.7816 a 0.13889,0.13889 0 0 0 -0.13399,-0.10199 z m -4.2308,0.87447 c 0.3919,0 0.69955,0.08302 0.93442,0.2395 a 0.13889,0.13889 0 0 0 0.0014,8.33e-4 c 0.23887,0.15536 0.41419,0.37126 0.5319,0.66101 a 0.13889,0.13889 0 0 0 8.19e-4,0.0022 c 0.10722,0.25173 0.16208,0.5501 0.17929,0.8818 h -3.4835 c 0.07975,-0.54457 0.2531,-0.97984 0.54383,-1.2846 0.31904,-0.33441 0.73835,-0.5007 1.2919,-0.5007 z m 18.786,0.02523 c 0.48817,0 0.87197,0.10352 1.1633,0.30108 0.2953,0.20021 0.51277,0.48229 0.65748,0.8601 a 0.13889,0.13889 0 0 0 2.8e-4,2.78e-4 c 0.14551,0.37591 0.22052,0.82976 0.22052,1.3627 0,0.53721 -0.0752,0.99747 -0.22106,1.3822 -0.14473,0.38178 -0.36415,0.66762 -0.66399,0.87203 a 0.13889,0.13889 0 0 0 -8.4e-4,5.56e-4 c -0.29185,0.20168 -0.67058,0.30704 -1.1492,0.30704 -0.4832,0 -0.86414,-0.10552 -1.1558,-0.30704 -0.29561,-0.20428 -0.5137,-0.49045 -0.65857,-0.87258 -0.14584,-0.38471 -0.22078,-0.84498 -0.22078,-1.3822 0,-0.81383 0.16907,-1.4343 0.49148,-1.8737 l 2.8e-4,-2.78e-4 c 1.1e-4,-1.38e-4 1.3e-4,-4.16e-4 2.8e-4,-5.55e-4 0.32201,-0.43239 0.81737,-0.64962 1.5366,-0.64961 z m -37.751,2.7311 v 0.48687 c 0,0.64723 -0.18846,1.1035 -0.56065,1.4121 -0.37972,0.31478 -0.86612,0.4744 -1.481,0.4744 -0.39053,0 -0.68785,-0.08783 -0.9081,-0.25334 -0.21248,-0.15966 -0.31925,-0.39563 -0.31925,-0.75784 0,-0.41227 0.15488,-0.7046 0.49013,-0.92872 0.3268,-0.21848 0.94031,-0.3623 1.826,-0.3952 a 0.13889,0.13889 0 0 0 2.77e-4,-2.78e-4 z"
         fill="#212121"
         id="path4" /></g></g></svg>
