<?xml version="1.0" encoding="UTF-8" standalone="no"?>
<!-- Created with Inkscape (http://www.inkscape.org/) -->

<svg
   width="132.29156mm"
   height="133.04356mm"
   viewBox="0 0 132.29157 133.04356"
   version="1.1"
   id="svg1"
   xml:space="preserve"
   xmlns:inkscape="http://www.inkscape.org/namespaces/inkscape"
   xmlns:sodipodi="http://sodipodi.sourceforge.net/DTD/sodipodi-0.dtd"
   xmlns="http://www.w3.org/2000/svg"
   xmlns:svg="http://www.w3.org/2000/svg"><sodipodi:namedview
     id="namedview1"
     pagecolor="#505050"
     bordercolor="#eeeeee"
     borderopacity="1"
     inkscape:showpageshadow="0"
     inkscape:pageopacity="0"
     inkscape:pagecheckerboard="0"
     inkscape:deskcolor="#505050"
     inkscape:document-units="mm"
     showborder="false" /><defs
     id="defs1"><inkscape:path-effect
       effect="fillet_chamfer"
       id="path-effect32"
       is_visible="true"
       lpeversion="1"
       nodesatellites_param="F,0,0,1,0,4.6577435,0,1 @ F,0,0,1,0,4.6577435,0,1 @ F,0,0,1,0,4.6577435,0,1 @ F,0,0,1,0,4.6577435,0,1 @ F,0,0,1,0,4.6577435,0,1 @ F,0,0,1,0,4.6577435,0,1"
       radius="17.60407"
       unit="px"
       method="auto"
       mode="F"
       chamfer_steps="1"
       flexible="false"
       use_knot_distance="true"
       apply_no_radius="true"
       apply_with_radius="true"
       only_selected="false"
       hide_knots="false" /><clipPath
       clipPathUnits="userSpaceOnUse"
       id="clipPath72"><path
         id="path73"
         style="fill:#ff0000;fill-opacity:1;fill-rule:nonzero;stroke:none;stroke-width:0.264583"
         d="M 116.55648,-4.1806263 V 128.86293 h 96.43597 c -0.0878,-0.21707 -0.14219,-0.46063 -0.0801,-0.67954 0.0247,-0.0869 0.0779,-0.16187 0.14831,-0.22686 -0.12805,-0.0588 -0.24344,-0.14456 -0.36587,-0.21498 0.0843,-0.35927 0.0689,-0.75776 0.25321,-1.07745 0.0847,-0.14693 0.31314,-0.13138 0.47439,-0.18397 0.29927,-0.0976 0.83047,-0.21539 1.12965,-0.28112 0.19702,-0.0433 0.40795,-0.0849 0.61857,-0.12816 0.04,-0.0859 0.0855,-0.16856 0.13125,-0.24184 -0.32017,0.0296 -0.62699,0.0193 -0.95394,-0.0532 -0.18475,-0.041 -0.36998,-0.0932 -0.53899,-0.17828 -0.013,-0.007 -0.0258,-0.0139 -0.0388,-0.0207 -0.17079,0.10014 -0.3361,0.2093 -0.50591,0.3111 -0.22796,0.13098 -0.46825,0.24429 -0.7245,0.30747 -0.0561,0.0138 -0.113,0.0239 -0.1695,0.0356 -0.15856,0.0267 -0.31836,0.0414 -0.47852,0.0543 -0.0684,0.005 -0.19162,0.0155 -0.25942,0.0129 -0.0576,-0.002 -0.1152,-0.0104 -0.1726,-0.0155 -0.26672,-0.0784 -0.35248,-0.0703 -0.55087,-0.38603 -0.11633,-0.18504 -0.092,-0.43367 -0.031,-0.62838 -0.0344,-0.006 -0.0697,-0.014 -0.10697,-0.0274 -0.0998,-0.0359 -0.20457,-0.0735 -0.28267,-0.14521 -0.15651,-0.14369 -0.22933,-0.27409 -0.25993,-0.44803 -0.039,-0.017 -0.0769,-0.036 -0.1111,-0.061 -0.15233,-0.11122 -0.22052,-0.2342 -0.28112,-0.40618 -0.05,-0.14186 -0.0392,-0.29684 -0.0289,-0.44338 0.0289,-0.22628 0.0955,-0.4489 0.22014,-0.64182 0.006,-0.009 0.0128,-0.0175 0.0191,-0.0264 -0.0269,0.0135 -0.0535,0.0276 -0.0806,0.0408 -0.16426,0.0805 -0.29328,0.0579 -0.36122,-0.008 -0.11137,0.0533 -0.16602,-0.0584 -0.0543,-0.11317 7.9e-4,-5.3e-4 0.002,-0.001 0.003,-0.002 -0.005,-0.0921 0.0586,-0.2014 0.216,-0.27854 0.0426,-0.0209 0.0855,-0.041 0.12713,-0.0636 0.0525,-0.0278 0.10573,-0.0545 0.16123,-0.076 0.0441,-0.0162 0.0885,-0.0317 0.13281,-0.0476 -0.0433,-5.3e-4 -0.087,-2.7e-4 -0.13023,-5.3e-4 -0.0754,-5.3e-4 -0.15094,-5.3e-4 -0.22634,0.002 -0.005,7.9e-4 -0.01,0.002 -0.015,0.002 -0.006,5.3e-4 -0.0154,0.006 -0.0196,10e-4 -0.004,0.001 -0.007,0.002 -0.008,-10e-4 -5.3e-4,-0.005 -1.1e-4,-0.01 5.3e-4,-0.0145 -0.003,-0.01 -0.005,-0.0202 -0.004,-0.03 8e-4,-0.005 0.0104,-0.001 0.0155,-0.001 h 5.3e-4 c 0.001,-2.6e-4 0.002,-1.6e-4 0.003,0 h 5.3e-4 c 0.009,-2.6e-4 0.0176,-0.001 0.0264,-0.002 5.3e-4,-1e-4 0.001,1e-4 0.002,0 0.0232,-0.004 0.0464,-0.009 0.0692,-0.0134 0.11132,-0.02 0.22338,-0.0341 0.33538,-0.0496 0.003,-2.6e-4 0.005,-5.3e-4 0.008,-5.3e-4 0.0365,-1.1e-4 0.0395,0.0393 -0.002,0.045 -0.0417,0.006 -0.0834,0.0113 -0.12505,0.0171 0.0338,7e-5 0.0675,2.7e-4 0.10128,10e-4 0.003,0 0.0488,7.9e-4 0.0568,0.003 0.004,0.001 0.007,0.003 0.0108,0.005 0.003,-7.9e-4 0.005,-0.002 0.008,-0.003 0.10663,-0.0368 0.21383,-0.0709 0.31884,-0.11214 0.0858,-0.0364 0.17067,-0.0752 0.25477,-0.11524 0.13213,-0.063 0.26388,-0.12624 0.39532,-0.19069 0.14489,-0.0681 0.29265,-0.13021 0.4377,-0.19792 0.10339,-0.0485 0.20437,-0.10102 0.30127,-0.16174 0.11925,-0.07 0.23911,-0.14014 0.35606,-0.21394 0.081,-0.0507 0.15936,-0.10549 0.24236,-0.15297 0.0677,-0.0401 0.13464,-0.0806 0.20154,-0.12195 0.0673,-0.041 0.13473,-0.0818 0.20153,-0.12351 0.0589,-0.0381 0.11714,-0.0777 0.17364,-0.11937 0.0641,-0.0442 0.1291,-0.087 0.1974,-0.12454 0.0562,-0.0309 0.1129,-0.0602 0.1695,-0.0904 0.0545,-0.0321 0.10996,-0.0636 0.16536,-0.094 0.0563,-0.0314 0.11304,-0.0617 0.17054,-0.091 0.0476,-0.0242 0.0945,-0.0494 0.13952,-0.0785 0.0389,-0.0242 0.0777,-0.0483 0.11472,-0.0754 0.0377,-0.0263 0.074,-0.0547 0.11163,-0.0811 0.0373,-0.0279 0.0716,-0.0594 0.108,-0.0884 0.0599,-0.0484 0.12227,-0.0932 0.18707,-0.13488 0.0795,-0.0507 0.16081,-0.0991 0.24391,-0.14366 0.0769,-0.0409 0.15548,-0.0788 0.23668,-0.11059 0.0657,-0.0265 0.13214,-0.0503 0.19844,-0.0754 0.0436,-0.0165 0.0879,-0.0316 0.13125,-0.0486 0.0345,-0.0142 0.0685,-0.0297 0.10181,-0.0465 0.0523,-0.0246 0.10451,-0.05 0.15451,-0.0791 0.004,-0.002 0.007,-0.005 0.0108,-0.007 0.0117,-0.0254 0.0227,-0.0512 0.0367,-0.0755 0.10306,-0.1786 0.26548,-0.30095 0.4594,-0.36328 0.0123,-0.008 0.0223,-0.0189 0.0351,-0.0258 0.0663,-0.0323 0.13578,-0.0562 0.20878,-0.0682 0.0592,-0.0109 0.119,-0.021 0.17931,-0.0227 l -5.3e-4,-0.001 h 5.3e-4 c 0.12446,-0.003 0.20433,0.0297 0.2584,0.0755 0.0558,0.002 0.11176,0.005 0.16742,0.01 0.16088,0.0159 0.32209,0.0381 0.47594,0.0899 0.091,0.032 0.35589,0.12597 0.39119,0.20308 0.16853,0.36796 0.26816,0.58038 0.16743,0.79065 0.18918,0.18988 0.20561,0.48326 -0.0134,0.73433 0.044,0.0581 0.0834,0.11366 0.11782,0.16588 0.0304,0.006 0.0613,0.0106 0.0915,0.0181 0.0501,0.0124 0.10065,0.0234 0.14935,0.0403 0.0597,0.0208 0.1173,0.0486 0.1757,0.0729 0.0882,0.0749 0.20528,0.12541 0.26458,0.22479 0.0791,0.13259 0.11954,0.28966 0.13384,0.44338 0.0188,0.20191 -0.15203,0.43922 -0.26665,0.59532 -0.0378,0.0451 -0.0634,0.0759 -0.0899,0.10645 0.17731,-0.0185 0.35599,-0.0267 0.53588,-0.0181 0.14003,0.009 0.33586,0.0178 0.47543,0.0455 0.0894,0.0178 0.19868,0.006 0.26458,0.0692 0.17744,0.16952 0.3684,0.35918 0.4315,0.59635 0.0561,0.21095 -0.0668,0.35482 -0.18656,0.48214 0.1013,0.0264 0.20269,0.0528 0.30231,0.0842 0.22379,0.0707 0.52149,0.16241 0.66043,0.38654 0.10272,0.009 0.20121,0.018 0.2837,0.0295 0.11504,0.016 0.22806,0.0441 0.3421,0.0661 0.1391,0.0796 0.32723,0.10603 0.41703,0.23875 0.27188,0.40163 0.22847,0.64472 -0.0181,0.96583 -0.11139,0.14506 -0.34773,0.2394 -0.52038,0.31264 0.0436,0.2996 -0.16294,0.53093 -0.37467,0.6935 0.0889,-0.003 0.17774,-0.006 0.26665,-0.007 0.0938,-0.002 1.0056,-0.006 1.14722,0.015 0.21389,0.0321 0.4201,0.10475 0.62995,0.1571 -0.0736,0.38137 -0.0847,0.7803 -0.22066,1.14411 -0.0267,0.0714 -0.14889,0.0343 -0.22428,0.046 -0.21275,0.0331 -0.69642,0.0811 -0.87953,0.0992 -0.62682,0.0622 -0.72063,0.0678 -1.37718,0.12403 -0.59127,0.051 -0.96678,0.0843 -1.48208,0.13229 0.02,0.0976 0.0339,0.21373 0.0388,0.35708 0.003,0.0945 -0.051,0.16596 -0.1292,0.22635 H 248.8482 V -4.1807269 Z M 219.2112,122.89224 c -0.008,0.004 -0.0157,0.01 -0.0227,0.0145 -0.004,0.003 -0.007,0.007 -0.0108,0.0103 0.009,-0.005 0.0173,-0.0111 0.0253,-0.017 0.003,-0.002 0.0116,-0.009 0.008,-0.008 z m -8.68164,0.57567 c -0.002,-1e-4 -0.007,0.003 -0.005,0.003 0.004,1e-4 0.009,-0.002 0.0139,-0.002 -0.003,-1.3e-4 -0.006,-5.3e-4 -0.009,-5.3e-4 z m 9.78699,0.55656 c -0.008,0.0108 -0.012,0.0155 -0.0196,0.0259 0.0218,0.003 0.0229,0.002 0.0196,-0.0259 z m -2.01279,1.41025 c -0.0167,-1.8e-4 -0.0334,5.3e-4 -0.0501,5.3e-4 -0.004,0.006 -0.009,0.0127 -0.0114,0.0196 0.0205,-0.004 0.041,-0.008 0.0615,-0.0124 1.7e-4,-0.003 -3e-5,-0.005 0,-0.008 z" /></clipPath><clipPath
       clipPathUnits="userSpaceOnUse"
       id="clipPath78"><path
         id="path78"
         style="fill:#ff0000;fill-opacity:1;fill-rule:nonzero;stroke:none;stroke-width:0.264583"
         d="M 119.41775,14.703767 V 146.99543 H 251.70942 V 14.703767 Z M 219.0711,137.87971 c 0.0144,-0.002 0.0229,0.0146 0.007,0.0315 -0.0109,0.0114 -0.0206,0.0234 -0.031,0.0351 -0.0136,0.0169 -0.028,0.0329 -0.0439,0.0476 -0.0189,0.0191 -0.0403,0.0353 -0.0615,0.0517 -0.0216,0.0163 -0.0436,0.032 -0.0661,0.047 -0.0212,0.0147 -0.0437,0.0277 -0.0656,0.0413 -0.0248,0.0153 -0.0505,0.0288 -0.076,0.0429 -0.0239,0.0147 -0.0482,0.0292 -0.0724,0.0434 -0.0287,0.0174 -0.0574,0.0348 -0.0858,0.0527 -0.0295,0.0179 -0.0577,0.0374 -0.0858,0.0574 -0.0369,0.0273 -0.0736,0.0547 -0.1111,0.0811 -0.0471,0.0324 -0.0928,0.0666 -0.13746,0.10232 -0.0469,0.0373 -0.0942,0.0744 -0.1416,0.1111 -0.0486,0.038 -0.0953,0.078 -0.14366,0.11628 -0.0171,0.0132 -0.0335,0.0275 -0.0486,0.0429 -0.022,0.0223 -0.0442,3e-5 -0.0222,-0.0222 0.0161,-0.0162 0.033,-0.0315 0.0512,-0.0455 0.0484,-0.0384 0.095,-0.0788 0.14366,-0.11679 0.0473,-0.0367 0.0948,-0.0733 0.1416,-0.11059 0.0452,-0.0361 0.0914,-0.0706 0.13901,-0.10335 0.0374,-0.0264 0.0743,-0.0539 0.1111,-0.0811 0.0285,-0.0203 0.0573,-0.0402 0.0873,-0.0584 0.0286,-0.0181 0.0578,-0.0357 0.0868,-0.0532 0.0244,-0.0144 0.0482,-0.0291 0.0724,-0.0439 0.0251,-0.0138 0.0505,-0.0269 0.0749,-0.0419 0.0216,-0.0134 0.0437,-0.0263 0.0646,-0.0408 0.022,-0.0146 0.0435,-0.0301 0.0646,-0.046 0.0206,-0.0158 0.0412,-0.0311 0.0594,-0.0496 0.0152,-0.0139 0.0289,-0.0294 0.0419,-0.0455 0.0108,-0.0122 0.0213,-0.0249 0.0326,-0.0367 0.005,-0.005 0.0103,-0.008 0.015,-0.009 z" /></clipPath><clipPath
       clipPathUnits="userSpaceOnUse"
       id="clipPath240"><path
         id="path241"
         style="fill:#ff0000;fill-opacity:1;fill-rule:nonzero;stroke:none;stroke-width:0.264583"
         d="m -104.80506,-112.07221 59.018151,-84.28666 -60.859071,-42.61398 -59.01815,84.28666 z m -4.59516,-116.7515 -8.6e-4,-6.1e-4 c -9.5e-4,-5e-4 -0.002,-7.8e-4 -0.003,-0.002 l 10e-4,-5.6e-4 -0.003,-0.002 c -0.006,-0.003 -0.008,-0.008 -0.008,-0.0112 -9.9e-4,-8.9e-4 -0.004,-4e-5 -0.006,-0.002 l -1.3e-4,-7.4e-4 c -0.0276,-0.0266 -0.0227,-0.0679 0.021,-0.085 0.004,-0.001 -0.005,-0.006 4.3e-4,-0.006 0.004,5.3e-4 0.009,7.4e-4 0.0128,7.2e-4 0.0105,-0.003 0.0222,-0.004 0.0356,-0.004 0.0216,5.1e-4 0.0435,10e-4 0.065,-0.002 0.007,-3.3e-4 0.013,-9.2e-4 0.0197,-0.002 0.006,-3.6e-4 0.0103,-0.005 0.015,-0.005 0.005,2.8e-4 0.0105,0.002 0.0156,0.002 0.007,-6.8e-4 0.0131,-9.4e-4 0.0197,-0.002 0.0184,-0.003 0.0367,-0.005 0.0553,-0.006 0.0183,-0.001 0.0369,-0.002 0.0551,-0.003 0.0219,-6.5e-4 0.0443,3.1e-4 0.0662,9.4e-4 0.0264,0.002 0.0527,0.003 0.0792,0.005 0.0349,0.003 0.0699,0.006 0.10474,0.009 0.0299,9.8e-4 0.0592,0.004 0.0891,0.004 0.0281,-5.8e-4 0.0561,-0.001 0.0842,-0.002 0.0282,-0.002 0.0565,-0.003 0.0847,-0.004 0.005,-3.7e-4 0.01,-5.4e-4 0.0151,-7.9e-4 -0.0212,-0.003 -0.0416,-0.006 -0.0629,-0.009 -0.017,-0.002 -0.0314,-0.007 -0.0427,-0.0129 -0.12988,-0.003 -0.2593,-0.01 -0.38914,-0.0164 -0.0969,-0.005 -0.19424,-0.0126 -0.29134,-0.011 -0.0476,0.004 -0.095,0.01 -0.14242,0.0151 -0.0215,0.003 -0.0375,-0.001 -0.0493,-0.006 l -2.2e-4,0.003 -1.7e-4,0.001 -4.4e-4,-3e-4 6.2e-4,-8.6e-4 -4.3e-4,-3e-4 c -0.0358,-0.0213 -0.0255,-0.0719 0.0405,-0.0795 0.0503,-0.006 0.10067,-0.0126 0.15118,-0.0159 0.0991,-0.001 0.19761,0.006 0.29651,0.0108 0.12134,0.007 0.24296,0.0122 0.3645,0.0155 0.0155,-0.0145 0.0422,-0.0234 0.0795,-0.0181 0.0313,0.004 0.0626,0.01 0.0939,0.0146 0.005,9.2e-4 0.01,0.002 0.0143,0.003 0.0835,-9.1e-4 0.1669,-3e-4 0.25032,-0.007 0.12702,-0.008 0.25361,-0.0222 0.38102,-0.0234 0.10909,0.002 0.2182,0.007 0.32695,0.0151 0.10677,0.01 0.21215,0.0289 0.3181,0.0448 0.10141,0.0171 0.20238,0.035 0.30341,0.0541 0.0949,0.017 0.18937,0.037 0.28338,0.0584 0.10543,0.02 0.21183,0.0351 0.31763,0.0527 0.006,8.8e-4 0.0129,0.002 0.0187,0.003 0.045,0.002 0.0889,0.005 0.13387,0.008 0.0467,0.003 0.0936,0.006 0.14026,0.0105 0.0467,0.005 0.0921,0.0156 0.13776,0.0258 0.0673,0.0153 0.13357,0.0345 0.1996,0.0546 0.0196,0.006 0.0399,0.0111 0.0597,0.0166 0.003,-0.12937 -0.007,-0.13258 0.0838,-0.14131 0.12174,-0.005 0.24302,0.007 0.36242,0.0311 0.10606,0.0228 0.21353,0.0414 0.31984,0.0631 0.0441,0.008 0.088,0.018 0.13182,0.028 0.0941,0.0135 0.18817,0.0272 0.28203,0.0423 0.13655,0.0206 0.27464,0.0396 0.41153,0.0591 0.0252,-0.0303 0.081,-0.0403 0.14839,-1.9e-4 0.005,0.003 0.032,0.019 0.0509,0.03 0.12701,0.0208 0.25323,0.0447 0.37817,0.0762 0.064,0.0192 0.10231,0.0211 0.11413,0.0496 0.0811,0.0181 0.16199,0.0364 0.24303,0.0547 0.13444,0.032 0.27113,0.0485 0.40743,0.0695 0.12781,0.0192 0.25474,0.0435 0.38198,0.0662 0.0852,0.016 0.17009,0.034 0.25654,0.0409 0.11792,0.009 0.14307,0.0979 0.0865,0.14132 0.0149,0.002 0.0354,0.002 0.0309,0.009 -0.0119,0.0197 -0.0254,0.0411 -0.0423,0.0568 -9.7e-4,0.007 -0.003,0.0124 -0.003,0.0187 l 8.6e-4,6.2e-4 c -2.5e-4,1.5e-4 -4.9e-4,9.4e-4 -6.1e-4,8.6e-4 l -1.3e-4,-7.3e-4 c -0.005,-0.002 -0.0105,-0.003 -0.0161,-0.005 -9.8e-4,9.4e-4 -0.003,0.002 -0.005,0.002 -0.0166,0.007 -0.0374,-0.011 -0.0549,-0.0189 -4.6e-4,0.0102 -0.006,0.0214 -0.0117,0.0284 -0.003,0.003 -0.008,-0.001 -0.0127,-0.004 0.002,9.9e-4 0.004,0.002 0.007,0.004 0.0103,0.006 0.0273,0.008 0.0304,0.0187 3.5e-4,8.9e-4 10e-4,4.1e-4 9.6e-4,0.003 0.005,5.9e-4 0.007,4.1e-4 0.006,0.003 -0.002,0.002 -0.004,0.005 -0.006,0.007 -8.7e-4,0.004 -0.003,0.008 -0.005,0.0121 5.8e-4,1e-4 8.3e-4,-7.1e-4 0.003,-9.5e-4 0.16086,0.0303 0.1254,0.19837 -0.0341,0.16222 -0.0151,-0.003 -0.0293,-0.008 -0.0443,-0.0115 -0.02,-0.004 -0.0393,-0.007 -0.0591,-0.0111 -0.0233,-0.004 -0.0468,-0.01 -0.0699,-0.0155 -0.0275,-0.006 -0.0546,-0.0129 -0.0825,-0.0174 -0.005,-9.2e-4 -0.0113,-0.003 -0.0168,-0.005 -0.004,4.2e-4 -0.009,8.9e-4 -0.0141,2.4e-4 -9.5e-4,-3e-5 -0.003,-7e-5 -0.006,-4.3e-4 -0.0111,-0.002 -0.0221,-0.004 -0.033,-0.006 -0.0118,-0.002 -0.0231,-0.005 -0.0348,-0.008 -0.0105,-0.003 -0.021,-0.005 -0.0317,-0.007 -0.01,-0.002 -0.0191,-0.004 -0.0292,-0.006 -0.0105,-9.9e-4 -0.021,-0.003 -0.0317,-0.005 -0.0125,-0.003 -0.025,-0.005 -0.0374,-0.008 -0.0126,-0.003 -0.0255,-0.006 -0.0384,-0.009 -0.0148,-0.003 -0.0294,-0.006 -0.0441,-0.01 -0.0144,-0.003 -0.0294,-0.008 -0.0439,-0.0112 -0.0157,-0.004 -0.0308,-0.008 -0.0466,-0.0118 -0.0168,-0.004 -0.0336,-0.009 -0.05,-0.0142 -0.0181,-0.006 -0.0367,-0.0112 -0.0551,-0.0159 -0.0155,-0.004 -0.0302,-0.009 -0.0459,-0.0119 -0.0189,-0.005 -0.0377,-0.009 -0.0566,-0.0138 -0.0197,-0.004 -0.0399,-0.009 -0.0596,-0.014 -0.0226,-0.005 -0.0448,-0.0105 -0.0673,-0.0156 -0.0172,-0.004 -0.0345,-0.007 -0.052,-0.0105 -0.0196,-0.003 -0.0393,-0.006 -0.0587,-0.0108 -0.0185,-0.004 -0.0373,-0.008 -0.0558,-0.0113 -0.0153,-0.003 -0.0307,-0.005 -0.0463,-0.006 -0.0151,-0.001 -0.0305,-0.003 -0.0456,-0.004 -0.0156,-0.001 -0.0309,-0.003 -0.0463,-0.006 -0.0201,-0.003 -0.0399,-0.007 -0.0598,-0.011 -0.0166,-0.003 -0.0338,-0.006 -0.0506,-0.007 -0.0125,-7.8e-4 -0.024,-0.002 -0.0365,-0.003 -0.0132,-10e-4 -0.027,-0.002 -0.0399,-0.005 -0.0144,-0.003 -0.0291,-0.006 -0.0435,-0.009 -0.0145,-0.003 -0.0281,-0.006 -0.0424,-0.009 -0.0157,-0.003 -0.0312,-0.006 -0.0468,-0.0107 -0.0122,-0.002 -0.0252,-0.004 -0.0375,-0.004 -0.0115,-6.5e-4 -0.0222,-0.002 -0.0339,-0.003 -0.012,-0.001 -0.0238,-0.002 -0.0358,-0.003 -0.013,-10e-4 -0.0259,-0.003 -0.0387,-0.005 -0.0121,-0.002 -0.0245,-0.005 -0.0367,-0.008 -0.01,-0.002 -0.0195,-0.004 -0.0298,-0.007 -0.0112,-0.002 -0.0225,-0.004 -0.0337,-0.006 -0.0102,-0.001 -0.0202,-0.004 -0.0306,-0.005 -0.0106,-6.9e-4 -0.0215,-0.001 -0.0321,-0.001 -0.0114,-0.001 -0.0219,-0.002 -0.0332,-0.003 -0.01,-9.9e-4 -0.0201,-0.003 -0.03,-0.004 l 1.7e-4,-0.001 c -0.0108,-0.001 -0.0193,-0.004 -0.0255,-0.008 -0.003,-0.002 -0.004,-0.004 -0.006,-0.007 -0.0639,-0.014 -0.12746,-0.0287 -0.19127,-0.0431 -0.10684,-0.0235 -0.21336,-0.0477 -0.31864,-0.0774 -0.12331,-0.0389 -0.24608,-0.0804 -0.36991,-0.1177 -0.0243,-0.008 -0.05,-0.0128 -0.0744,-0.0199 -0.0228,-0.005 -0.0454,-0.01 -0.0682,-0.0143 -0.0579,-0.0111 -0.11521,-0.0253 -0.17289,-0.0378 -0.005,-9.2e-4 -0.0108,-0.003 -0.0162,-0.004 -0.009,0.004 -0.0204,0.006 -0.0344,0.005 -0.0235,-7.2e-4 -0.048,-0.002 -0.0714,-0.005 -0.049,-0.006 -0.0969,-0.0116 -0.14516,-0.0215 -0.0421,-0.009 -0.0849,-0.0166 -0.12701,-0.0258 -0.0359,-0.008 -0.0723,-0.0174 -0.10854,-0.0243 -0.0387,-0.007 -0.0772,-0.0147 -0.11592,-0.0219 -0.0386,-0.008 -0.0768,-0.0178 -0.11505,-0.0276 -0.0315,-0.008 -0.0628,-0.0149 -0.0944,-0.0219 -0.0248,-0.006 -0.05,-0.0104 -0.0752,-0.0142 -0.0266,-0.004 -0.0527,-0.007 -0.0795,-0.009 -0.0206,-0.002 -0.0415,-0.003 -0.0621,-0.005 -0.0207,-0.002 -0.0414,-0.005 -0.0619,-0.008 -0.0157,-0.001 -0.0313,-0.003 -0.0471,-0.004 -0.017,-7.8e-4 -0.0342,-9.9e-4 -0.0513,-5.9e-4 -0.0174,5e-4 -0.0341,0.002 -0.0512,0.002 -7.4e-4,1.3e-4 -0.001,2e-4 -0.002,3.9e-4 -0.0117,0.001 -0.0232,0.003 -0.0349,0.004 -0.0281,0.004 -0.0567,0.007 -0.085,0.008 -0.0305,9.9e-4 -0.0605,0.002 -0.091,-6.4e-4 -0.0395,-0.003 -0.0789,-0.006 -0.11833,-0.0103 -0.0392,-0.005 -0.0781,-0.0137 -0.11692,-0.0213 -0.0212,-0.005 -0.0434,-0.0107 -0.0646,-0.0149 -0.0135,-9.8e-4 -0.0265,-0.002 -0.0398,-0.003 -0.0147,-0.002 -0.0301,-0.003 -0.0449,-0.004 -0.0121,-0.001 -0.0226,-0.002 -0.0345,-0.004 -0.0152,-0.002 -0.0273,-0.007 -0.0361,-0.0133 -0.003,-0.002 -0.005,-0.004 -0.007,-0.005 -0.0238,-0.003 -0.0473,-0.006 -0.0714,-0.007 -0.0367,-9.9e-4 -0.0734,-0.003 -0.1102,-0.002 -0.0305,9.5e-4 -0.0608,0.002 -0.0912,0.002 -0.0307,-1.2e-4 -0.0614,-6.7e-4 -0.092,-9e-5 -0.0344,-8e-4 -0.0696,-7e-5 -0.10393,-2.3e-4 -0.0355,-4.1e-4 -0.0695,-0.002 -0.10486,-0.003 -0.0344,-3.8e-4 -0.0689,-5e-5 -0.10321,-3.5e-4 -0.0321,3.6e-4 -0.065,7.9e-4 -0.097,0.003 -0.0287,0.002 -0.057,0.004 -0.0856,0.007 -0.0288,0.002 -0.0578,0.004 -0.0867,0.003 -0.0288,-8.3e-4 -0.0571,-0.002 -0.0859,-0.005 -0.0261,-0.002 -0.0524,-0.004 -0.0784,-0.007 -0.035,-0.004 -0.0696,-0.0101 -0.1046,-0.0146 -0.007,-9.9e-4 -0.0133,-7.8e-4 -0.02,-0.002 -0.0322,6.5e-4 -0.0649,6.6e-4 -0.0968,0.002 -0.0182,1.7e-4 -0.0362,-5.2e-4 -0.0543,-8.1e-4 -0.002,0.004 -0.007,0.007 -0.0149,0.006 -0.006,-2.6e-4 -0.003,1.5e-4 -0.009,-6.3e-4 -0.009,-8.9e-4 -0.0178,-0.002 -0.0271,-0.002 -0.008,-3e-4 -0.0169,-5.6e-4 -0.0254,-7.3e-4 -0.008,2e-5 -0.0155,1.9e-4 -0.0233,7.7e-4 -0.005,6.4e-4 -0.0106,0.001 -0.0162,6.4e-4 -0.004,-2.1e-4 -0.008,-1.7e-4 -0.012,-8.7e-4 -0.006,-6.5e-4 -0.01,-0.001 -0.0156,-0.002 -0.004,-2.1e-4 -0.009,2.7e-4 -0.0138,-1.7e-4 -0.006,-5.6e-4 -0.0125,-9.8e-4 -0.0182,-0.002 -0.008,-9.8e-4 -0.017,-0.002 -0.0256,-0.004 -0.007,-9.9e-4 -0.0125,-0.002 -0.0193,-0.002 -0.005,-2.7e-4 -0.0102,-5.2e-4 -0.0158,-9.2e-4 -0.006,-3.3e-4 -0.0115,-5.1e-4 -0.0172,-7e-4 -0.007,-5.5e-4 -0.0149,-5.5e-4 -0.0224,-5e-4 -0.007,-6.5e-4 -0.0131,-0.002 -0.02,-0.002 -0.006,-4.2e-4 -0.0129,6e-5 -0.0189,0 -0.008,-3e-4 -0.017,-6.4e-4 -0.0254,-7.4e-4 -0.007,1.7e-4 -0.0138,5.3e-4 -0.0214,7.9e-4 -0.007,3.6e-4 -0.0147,7.5e-4 -0.0221,9.3e-4 -0.007,2.1e-4 -0.0143,1.9e-4 -0.0215,9e-5 -0.008,-5e-5 -0.0175,2e-5 -0.0259,1.1e-4 -0.008,5e-5 -0.0161,1.2e-4 -0.0234,4e-5 -0.006,-1.6e-4 -0.0106,-1e-4 -0.0159,2.2e-4 -0.006,6.4e-4 -0.0122,9.1e-4 -0.0184,0.001 -0.007,3e-4 -0.0145,5.1e-4 -0.0218,5e-4 -0.007,2.3e-4 -0.0138,4e-4 -0.0211,3.9e-4 -0.006,2.8e-4 -0.0123,5.9e-4 -0.0177,8.8e-4 -0.004,4.6e-4 -0.008,4.4e-4 -0.0115,0.002 -0.003,8.9e-4 -0.007,2.4e-4 -0.0106,7.6e-4 -0.004,8.2e-4 -0.009,8.3e-4 -0.0132,8.6e-4 -0.004,1e-4 -0.009,8.3e-4 -0.0129,4.2e-4 -0.004,-2.2e-4 -0.009,-8.3e-4 -0.0139,-8.7e-4 -5.8e-4,-9e-5 -9.9e-4,-4.3e-4 -0.002,-3.5e-4 -0.002,5.4e-4 -0.003,7.3e-4 -0.005,8.9e-4 -0.0158,0.004 -0.0313,0.008 -0.0473,0.0117 -0.007,9e-4 -0.0122,2e-4 -0.0165,-8e-4 -2.3e-4,2e-5 -3.7e-4,6e-5 -7.4e-4,1.3e-4 -9.5e-4,-3e-5 -0.002,-2e-4 -0.003,-2.2e-4 -0.001,4e-5 -0.002,-2e-4 -0.003,-6.5e-4 l -3.1e-4,4.3e-4 c -2.8e-4,5e-5 -4.9e-4,-2.2e-4 -8.6e-4,-6.1e-4 -5.9e-4,-8e-5 -0.001,-8.1e-4 -0.002,-7.8e-4 -5.3e-4,-1.7e-4 -9.5e-4,-2e-5 -0.002,-4e-5 -5.4e-4,-1.5e-4 -5.2e-4,-6.3e-4 -5.6e-4,-0.001 l -4.3e-4,-3.1e-4 -5.7e-4,-0.001 -4.3e-4,-3e-4 -1.3e-4,-7.4e-4 -4.3e-4,-3e-4 -4.4e-4,-3e-4 c -9.4e-4,-5e-4 -0.003,-0.001 -0.003,-0.002 -6e-5,-5e-5 6.9e-4,-8.1e-4 6.1e-4,-8.6e-4 -7.7e-4,-7.5e-4 -0.003,-3.7e-4 -0.002,-0.002 l -0.007,-0.005 -8.6e-4,-6.1e-4 c -0.002,-0.001 -0.002,-0.002 -0.002,-0.003 -9.6e-4,-2e-5 -9.6e-4,-2e-5 -0.003,2.2e-4 -9.5e-4,-2e-5 -0.002,-4.8e-4 -0.003,-6.5e-4 -0.004,1e-4 -0.007,-1e-5 -0.0112,-2.7e-4 -0.004,-2.1e-4 -0.007,1.4e-4 -0.0101,-9e-5 -0.004,1e-4 -0.008,-1.5e-4 -0.012,-8.5e-4 -0.003,-4.8e-4 -0.006,-0.002 -0.009,-0.002 z m 0.0596,0.006 7.4e-4,-1.3e-4 c 2e-4,-1.8e-4 3.2e-4,4.6e-4 4.7e-4,-0.002 -7.3e-4,1.3e-4 -0.002,-4.2e-4 -0.003,-2.2e-4 z m 1.06297,-0.12249 7.4e-4,-1.3e-4 c 0.0311,10e-4 0.0624,0.003 0.0936,0.002 0.0137,-7.8e-4 0.0398,-0.003 0.0533,-0.005 0.0661,-0.009 0.13175,-0.0177 0.19834,-0.022 0.0761,-0.004 0.15208,-0.002 0.22822,2.1e-4 0.0601,0.002 0.12066,0.006 0.18069,0.0104 0.0498,0.005 0.098,0.0148 0.14727,0.023 0.053,0.008 0.10697,0.0175 0.15999,0.0256 0.0562,0.008 0.11254,0.0159 0.16896,0.0218 0.0519,0.006 0.10275,0.009 0.15469,0.0124 -0.0217,-0.004 -0.0433,-0.009 -0.0651,-0.0134 -0.10073,-0.0191 -0.20187,-0.0368 -0.30298,-0.0538 -0.10373,-0.0154 -0.20641,-0.0348 -0.31095,-0.0442 -0.10657,-0.008 -0.21336,-0.0131 -0.32022,-0.0148 -0.12496,0.002 -0.24929,0.0157 -0.37386,0.024 -0.005,5e-4 -0.0108,1.8e-4 -0.0162,6.3e-4 1.3e-4,7.4e-4 -4e-5,0.002 5.2e-4,0.003 0.003,0.0114 0.003,0.021 0.003,0.0299 z" /></clipPath></defs><g
     inkscape:label="Layer 1"
     inkscape:groupmode="layer"
     id="layer1"
     transform="translate(-56.697887,-22.594341)"><g
       id="g32"
       transform="translate(2.8612716,18.884393)"><g
         id="g34"
         transform="translate(-62.719963,7.890576)"
         clip-path="url(#clipPath72)"><circle
           style="fill:#000000;fill-opacity:1;stroke-width:0.226278;stroke-linecap:square;paint-order:markers fill stroke"
           id="path15"
           cx="185.56369"
           cy="80.849426"
           r="66.145836"
           transform="translate(-2.8612715,-18.884393)"
           clip-path="url(#clipPath78)" /><g
           id="g33"
           transform="translate(-4.5780324,-5.7225434)"><rect
             style="fill:#e2e8f0;fill-opacity:1;stroke-width:0.203764;stroke-linecap:square;paint-order:markers fill stroke"
             id="rect15"
             width="7.2141871"
             height="61.835884"
             x="211.14388"
             y="31.691189" /><path
             style="fill:#e2e8f0;fill-opacity:1;stroke-width:0.302023;stroke-linecap:square;paint-order:markers fill stroke"
             id="rect16"
             width="9.260417"
             height="105.83334"
             x="14.960396"
             y="52.752575"
             ry="4.6577435"
             inkscape:path-effect="#path-effect32"
             sodipodi:type="rect"
             d="m 23.499277,54.905672 c 0.769766,1.216475 0.721536,4.589989 0.721536,7.16239 v 87.202368 c 0,2.5724 -0.05642,7.24726 -2.129845,8.5829 -1.209735,0.77927 -5.091175,0.6621 -6.409036,-1.42051 -0.769767,-1.21647 -0.721536,-4.58999 -0.721536,-7.16239 V 62.068062 c 0,-2.572401 0.05642,-7.247259 2.129845,-8.582901 1.209735,-0.779266 5.091174,-0.662093 6.409036,1.420511 z"
             transform="matrix(0.77903478,0,0,0.77903478,138.47833,-9.4049026)" /><path
             id="rect17"
             style="fill:#e2e8f0;fill-opacity:1;stroke-width:0.288167;stroke-linecap:square;paint-order:markers fill stroke"
             transform="rotate(145)"
             d="m -107.90084,-114.24053 2.9e-4,-4.2e-4 c 0.51905,0.35008 1.14567,0.55374 1.82151,0.55374 l 0.70763,2.7e-4 c 1.80226,0 3.25331,-1.45107 3.25331,-3.25333 l 1.8e-4,-115.32922 c -0.33549,-0.13618 -0.67217,-0.26959 -1.00971,-0.40042 -0.35446,-0.1184 -0.71038,-0.2387 -1.08302,-0.28582 -0.43774,-0.0549 -0.87724,-0.10118 -1.31825,-0.11745 -0.35458,0.007 -0.70926,0.0139 -1.0635,0.0269 -0.37486,0.0243 -0.74743,0.0689 -1.11779,0.13142 -0.40409,0.0784 -0.80887,0.16557 -1.22207,0.17764 -0.13337,-8.3e-4 -0.267,-0.003 -0.40028,-0.006 l 3e-4,115.80332 c 0,1.12641 0.56632,2.11579 1.4314,2.69927 z m -1.32445,-116.47816 c -0.0627,-0.0379 -0.0263,-0.10784 0.0499,-0.0748 0.21022,0.0911 0.41849,0.18539 0.62923,0.27531 0.22571,0.0927 0.45374,0.18033 0.68588,0.25567 0.12109,0.0393 0.18698,0.0576 0.3081,0.0934 0.23858,0.0685 0.47849,0.13315 0.72149,0.18409 0.01,0.002 0.0192,0.003 0.0287,0.005 -0.0259,-0.0372 0.009,-0.0816 0.0725,-0.054 0.0367,0.016 0.0855,0.031 0.0999,0.0744 0.004,0.0111 -6.8e-4,0.023 -5.1e-4,0.035 -0.008,0.01 -0.0143,0.022 -0.0239,0.0306 -0.0113,0.01 -0.0383,0.0141 -0.0519,0.0147 -0.0485,0.002 -0.0966,-0.012 -0.14394,-0.0188 -0.24533,-0.0515 -0.48761,-0.11659 -0.72848,-0.18583 -0.12253,-0.0362 -0.18867,-0.0545 -0.31123,-0.0943 -0.23436,-0.0761 -0.4644,-0.16465 -0.69227,-0.25826 -0.2107,-0.0899 -0.41977,-0.18408 -0.62995,-0.27518 -0.005,-0.002 -0.009,-0.004 -0.0135,-0.007 z m 2.5248,0.75032 c 0.003,-5.1e-4 0.005,-0.001 0.007,-0.002 4.6e-4,-6.6e-4 -0.002,-0.002 -0.003,-0.001 -0.002,0.001 -0.003,0.003 -0.005,0.004 z m -2.63199,-3.7866 c 0.13556,0.004 0.27135,0.005 0.40701,0.006 0.34561,-0.0185 0.68377,-0.0932 1.02237,-0.15912 0.41193,-0.0712 0.827,-0.11958 1.24403,-0.14774 0.36975,-0.0145 0.7395,-0.0209 1.10956,-0.0287 0.48994,0.0124 0.97852,0.0642 1.46461,0.12467 0.43927,0.0541 0.85952,0.19038 1.27741,0.32984 0.2307,0.0885 0.45992,0.18056 0.68951,0.2721 l -1e-4,-0.74764 c 0,-1.80225 -1.45107,-3.2533 -3.25333,-3.2533 l -0.70763,-2.7e-4 c -1.80226,0 -3.25331,1.45107 -3.25331,3.25333 z"
             clip-path="url(#clipPath240)" /></g></g></g></g></svg>
