<?xml version="1.0" encoding="UTF-8" standalone="no"?>
<!-- Created with Inkscape (http://www.inkscape.org/) -->

<svg
   width="79.375mm"
   height="79.375mm"
   viewBox="0 0 79.375002 79.374998"
   version="1.1"
   id="svg1"
   xml:space="preserve"
   xmlns:inkscape="http://www.inkscape.org/namespaces/inkscape"
   xmlns:sodipodi="http://sodipodi.sourceforge.net/DTD/sodipodi-0.dtd"
   xmlns:xlink="http://www.w3.org/1999/xlink"
   xmlns="http://www.w3.org/2000/svg"
   xmlns:svg="http://www.w3.org/2000/svg"><sodipodi:namedview
     id="namedview1"
     pagecolor="#505050"
     bordercolor="#eeeeee"
     borderopacity="1"
     inkscape:showpageshadow="0"
     inkscape:pageopacity="0"
     inkscape:pagecheckerboard="0"
     inkscape:deskcolor="#505050"
     inkscape:document-units="mm"
     showborder="false" /><defs
     id="defs1"><linearGradient
       x1="79.822205"
       y1="21.346527"
       x2="32.862076"
       y2="105.42219"
       id="b"
       gradientTransform="scale(0.93682488,1.0674354)"
       gradientUnits="userSpaceOnUse"><stop
         stop-color="#41873F"
         offset="0%"
         id="stop1" /><stop
         stop-color="#418B3D"
         offset="32.88%"
         id="stop2-1" /><stop
         stop-color="#419637"
         offset="63.52%"
         id="stop3-1" /><stop
         stop-color="#3FA92D"
         offset="93.19%"
         id="stop4-8" /><stop
         stop-color="#3FAE2A"
         offset="100%"
         id="stop5-1" /></linearGradient><path
       id="a"
       d="m 57.903,1.85 a 5.957,5.957 0 0 0 -5.894,0 L 3.352,29.933 c -1.85,1.04 -2.89,3.005 -2.89,5.085 v 56.286 c 0,2.08 1.156,4.045 2.89,5.085 l 48.657,28.085 a 5.957,5.957 0 0 0 5.894,0 l 48.658,-28.085 c 1.849,-1.04 2.89,-3.005 2.89,-5.085 V 35.019 c 0,-2.08 -1.157,-4.045 -2.89,-5.085 z" /><linearGradient
       x1="51.368862"
       y1="64.594604"
       x2="184.67395"
       y2="-19.864828"
       id="d"
       gradientTransform="scale(0.92602084,1.0798893)"
       gradientUnits="userSpaceOnUse"><stop
         stop-color="#41873F"
         offset="13.76%"
         id="stop6" /><stop
         stop-color="#54A044"
         offset="40.32%"
         id="stop7" /><stop
         stop-color="#66B848"
         offset="71.36%"
         id="stop8" /><stop
         stop-color="#6CC04A"
         offset="90.81%"
         id="stop9" /></linearGradient><linearGradient
       x1="5.4630942"
       y1="1.3961854"
       x2="60.624519"
       y2="1.3961854"
       id="e"
       gradientTransform="scale(1.6318162,0.6128141)"
       gradientUnits="userSpaceOnUse"><stop
         stop-color="#6CC04A"
         offset="9.192%"
         id="stop10" /><stop
         stop-color="#66B848"
         offset="28.64%"
         id="stop11" /><stop
         stop-color="#54A044"
         offset="59.68%"
         id="stop12" /><stop
         stop-color="#41873F"
         offset="86.24%"
         id="stop13" /></linearGradient><linearGradient
       x1="-1.4223322"
       y1="66.989662"
       x2="120.27905"
       y2="66.989662"
       id="f"
       gradientTransform="scale(0.92514783,1.0809083)"
       gradientUnits="userSpaceOnUse"><stop
         stop-color="#6CC04A"
         offset="9.192%"
         id="stop14" /><stop
         stop-color="#66B848"
         offset="28.64%"
         id="stop15" /><stop
         stop-color="#54A044"
         offset="59.68%"
         id="stop16" /><stop
         stop-color="#41873F"
         offset="86.24%"
         id="stop17" /></linearGradient><linearGradient
       x1="117.94696"
       y1="68.39164"
       x2="169.56171"
       y2="68.39164"
       id="g"
       gradientTransform="scale(0.65492335,1.5268962)"
       gradientUnits="userSpaceOnUse"><stop
         stop-color="#6CC04A"
         offset="9.192%"
         id="stop18" /><stop
         stop-color="#66B848"
         offset="28.64%"
         id="stop19" /><stop
         stop-color="#54A044"
         offset="59.68%"
         id="stop20" /><stop
         stop-color="#41873F"
         offset="86.24%"
         id="stop21" /></linearGradient><linearGradient
       x1="-1.0387961"
       y1="150.7515"
       x2="87.897064"
       y2="150.7515"
       id="h"
       gradientTransform="scale(1.2659747,0.78990523)"
       gradientUnits="userSpaceOnUse"><stop
         stop-color="#6CC04A"
         offset="9.192%"
         id="stop22" /><stop
         stop-color="#66B848"
         offset="28.64%"
         id="stop23" /><stop
         stop-color="#54A044"
         offset="59.68%"
         id="stop24" /><stop
         stop-color="#41873F"
         offset="86.24%"
         id="stop25" /></linearGradient><linearGradient
       x1="100.85387"
       y1="37.182247"
       x2="46.003895"
       y2="216.51321"
       id="i"
       gradientTransform="scale(1.2659747,0.78990523)"
       gradientUnits="userSpaceOnUse"><stop
         stop-color="#41873F"
         offset="0%"
         id="stop26" /><stop
         stop-color="#418B3D"
         offset="32.88%"
         id="stop27" /><stop
         stop-color="#419637"
         offset="63.52%"
         id="stop28" /><stop
         stop-color="#3FA92D"
         offset="93.19%"
         id="stop29" /><stop
         stop-color="#3FAE2A"
         offset="100%"
         id="stop30" /></linearGradient></defs><g
     inkscape:label="Layer 1"
     inkscape:groupmode="layer"
     id="layer1"
     transform="translate(-67.751388,-41.549103)"><rect
       style="fill:#e2e8f0;fill-opacity:1;stroke-width:0.115952;stroke-linecap:square;paint-order:markers fill stroke"
       id="rect1"
       width="79.375"
       height="79.375"
       x="67.751389"
       y="41.549103" /><g
       fill="none"
       id="g42"
       transform="matrix(0.12520489,0,0,0.12520489,75.400898,61.636169)"><path
         d="m 253.11,313.094 c -1.733,0 -3.351,-0.462 -4.854,-1.271 l -15.371,-9.13 c -2.312,-1.272 -1.156,-1.734 -0.462,-1.965 3.12,-1.04 3.698,-1.272 6.934,-3.12 0.347,-0.232 0.81,-0.116 1.156,0.115 l 11.789,7.05 c 0.462,0.231 1.04,0.231 1.386,0 l 46.115,-26.698 c 0.462,-0.231 0.694,-0.694 0.694,-1.271 v -53.28 c 0,-0.579 -0.232,-1.04 -0.694,-1.272 L 253.688,195.67 c -0.462,-0.232 -1.04,-0.232 -1.386,0 l -46.115,26.582 c -0.462,0.231 -0.694,0.809 -0.694,1.271 v 53.28 c 0,0.463 0.232,1.04 0.694,1.272 l 12.598,7.281 c 6.819,3.467 11.095,-0.578 11.095,-4.623 v -52.587 c 0,-0.693 0.578,-1.387 1.387,-1.387 h 5.894 c 0.694,0 1.387,0.578 1.387,1.387 v 52.587 c 0,9.13 -4.97,14.447 -13.638,14.447 -2.658,0 -4.738,0 -10.633,-2.89 l -12.135,-6.934 c -3.005,-1.733 -4.854,-4.97 -4.854,-8.437 v -53.28 c 0,-3.467 1.849,-6.704 4.854,-8.437 l 46.114,-26.698 c 2.89,-1.618 6.82,-1.618 9.709,0 l 46.114,26.698 c 3.005,1.733 4.855,4.97 4.855,8.437 v 53.28 c 0,3.467 -1.85,6.704 -4.855,8.437 l -46.114,26.698 c -1.503,0.694 -3.236,1.04 -4.854,1.04 z m 14.216,-36.637 c -20.225,0 -24.386,-9.246 -24.386,-17.105 0,-0.694 0.578,-1.387 1.387,-1.387 h 6.01 c 0.693,0 1.271,0.462 1.271,1.156 0.925,6.125 3.583,9.13 15.834,9.13 9.708,0 13.87,-2.196 13.87,-7.397 0,-3.005 -1.157,-5.2 -16.297,-6.703 -12.598,-1.272 -20.457,-4.045 -20.457,-14.1 0,-9.362 7.86,-14.91 21.035,-14.91 14.793,0 22.075,5.086 23,16.18 0,0.348 -0.116,0.694 -0.347,1.041 -0.232,0.231 -0.578,0.462 -0.925,0.462 h -6.01 c -0.578,0 -1.156,-0.462 -1.271,-1.04 -1.387,-6.356 -4.97,-8.437 -14.447,-8.437 -10.633,0 -11.905,3.699 -11.905,6.472 0,3.352 1.503,4.392 15.834,6.241 14.216,1.85 20.92,4.508 20.92,14.447 -0.116,10.171 -8.437,15.95 -23.116,15.95 z"
         fill="#539e43"
         id="path30" /><path
         d="m 110.028,104.712 c 0,-2.08 -1.156,-4.046 -3.005,-5.086 l -49.004,-28.2 c -0.81,-0.463 -1.734,-0.694 -2.658,-0.81 h -0.463 c -0.924,0 -1.849,0.347 -2.658,0.81 l -49.004,28.2 c -1.85,1.04 -3.005,3.005 -3.005,5.086 l 0.116,75.817 c 0,1.04 0.578,2.08 1.502,2.543 0.925,0.578 2.08,0.578 2.89,0 l 29.125,-16.643 c 1.849,-1.04 3.005,-3.005 3.005,-5.085 v -35.482 c 0,-2.08 1.155,-4.045 3.005,-5.085 l 12.366,-7.166 c 0.925,-0.578 1.965,-0.81 3.005,-0.81 1.04,0 2.08,0.232 2.89,0.81 l 12.366,7.166 c 1.85,1.04 3.005,3.004 3.005,5.085 v 35.482 c 0,2.08 1.156,4.045 3.005,5.085 l 29.125,16.643 c 0.925,0.578 2.08,0.578 3.005,0 0.925,-0.463 1.503,-1.503 1.503,-2.543 z M 345.571,0.347 c -0.924,-0.463 -2.08,-0.463 -2.89,0 -0.924,0.578 -1.502,1.502 -1.502,2.542 v 75.125 c 0,0.693 -0.346,1.386 -1.04,1.849 -0.693,0.346 -1.387,0.346 -2.08,0 l -12.251,-7.05 a 5.957,5.957 0 0 0 -5.895,0 l -49.004,28.316 c -1.849,1.04 -3.005,3.005 -3.005,5.085 v 56.516 c 0,2.08 1.156,4.046 3.005,5.086 l 49.004,28.316 a 5.957,5.957 0 0 0 5.895,0 l 49.004,-28.316 c 1.849,-1.04 3.005,-3.005 3.005,-5.086 V 21.844 c 0,-2.196 -1.156,-4.16 -3.005,-5.201 L 345.572,0.347 Z m -4.507,143.776 c 0,0.578 -0.231,1.04 -0.694,1.271 l -16.758,9.708 a 1.714,1.714 0 0 1 -1.503,0 l -16.758,-9.708 c -0.463,-0.231 -0.694,-0.809 -0.694,-1.271 v -19.417 c 0,-0.578 0.231,-1.04 0.694,-1.271 l 16.758,-9.709 a 1.714,1.714 0 0 1 1.503,0 l 16.758,9.709 c 0.463,0.23 0.694,0.809 0.694,1.271 z m 167.584,-19.879 c 1.85,-1.04 2.89,-3.005 2.89,-5.086 v -13.753 c 0,-2.08 -1.156,-4.045 -2.89,-5.085 l -48.657,-28.2 a 5.957,5.957 0 0 0 -5.894,0 l -49.004,28.315 c -1.85,1.04 -3.005,3.005 -3.005,5.086 v 56.516 c 0,2.08 1.155,4.045 3.005,5.085 l 48.657,27.738 c 1.85,1.04 4.045,1.04 5.779,0 L 489,178.45 c 0.925,-0.463 1.503,-1.503 1.503,-2.543 0,-1.04 -0.578,-2.08 -1.503,-2.543 l -49.235,-28.316 c -0.924,-0.577 -1.502,-1.502 -1.502,-2.542 v -17.683 c 0,-1.04 0.578,-2.08 1.502,-2.543 l 15.372,-8.784 a 2.821,2.821 0 0 1 3.005,0 l 15.371,8.784 c 0.925,0.578 1.503,1.502 1.503,2.543 v 13.869 c 0,1.04 0.578,2.08 1.502,2.542 0.925,0.578 2.08,0.578 3.005,0 z"
         fill="#333333"
         id="path31" /><path
         d="m 456.293,121.586 a 1.05,1.05 0 0 1 1.155,0 l 9.362,5.432 c 0.347,0.23 0.578,0.577 0.578,1.04 v 10.864 c 0,0.462 -0.231,0.809 -0.578,1.04 l -9.362,5.432 a 1.05,1.05 0 0 1 -1.155,0 l -9.362,-5.432 c -0.347,-0.231 -0.578,-0.578 -0.578,-1.04 v -10.864 c 0,-0.463 0.231,-0.81 0.578,-1.04 z"
         fill="#539e43"
         id="path32" /><g
         transform="translate(134.068,70.501)"
         id="g41"><mask
           id="c"
           fill="#ffffff"><use
             xlink:href="#a"
             id="use32" /></mask><use
           fill="url(#b)"
           xlink:href="#a"
           id="use33"
           style="fill:url(#b)" /><g
           mask="url(#c)"
           id="g34"><path
             d="M 51.893,1.85 3.121,29.933 C 1.27,30.974 0,32.94 0,35.02 v 56.286 c 0,1.387 0.578,2.658 1.502,3.698 L 56.285,1.156 C 54.898,0.925 53.28,1.04 51.893,1.849 Z m 4.739,123.203 c 0.462,-0.116 0.925,-0.347 1.387,-0.578 L 106.792,96.39 c 1.85,-1.04 3.005,-3.005 3.005,-5.085 V 35.019 c 0,-1.502 -0.694,-3.005 -1.734,-4.045 l -51.43,94.079 z"
             id="path33" /><path
             d="M 106.676,29.934 57.788,1.85 A 8.025,8.025 0 0 0 56.285,1.272 L 1.502,95.12 a 6.082,6.082 0 0 0 1.619,1.387 l 48.888,28.085 c 1.387,0.809 3.005,1.04 4.507,0.577 l 51.432,-94.078 c -0.347,-0.462 -0.81,-0.81 -1.272,-1.156 z"
             fill="url(#d)"
             id="path34"
             style="fill:url(#d)" /></g><g
           mask="url(#c)"
           id="g40"><path
             d="M 109.797,91.305 V 35.019 c 0,-2.08 -1.271,-4.045 -3.12,-5.085 L 57.786,1.85 A 5.106,5.106 0 0 0 55.938,1.157 l 53.511,91.42 c 0.231,-0.347 0.347,-0.809 0.347,-1.271 z M 3.12,29.934 C 1.272,30.974 0,32.94 0,35.02 v 56.286 c 0,2.08 1.387,4.045 3.12,5.085 l 48.889,28.085 c 1.156,0.693 2.427,0.925 3.814,0.693 L 3.467,29.818 3.121,29.934 Z"
             id="path35" /><path
             fill="url(#e)"
             fill-rule="evenodd"
             d="m 50.391,0.809 -0.693,0.347 h 0.924 z"
             transform="translate(0,-9.246)"
             id="path36"
             style="fill:url(#e)" /><path
             d="m 106.792,105.636 c 1.387,-0.809 2.427,-2.196 2.89,-3.698 L 56.053,10.402 c -1.387,-0.231 -2.89,-0.116 -4.16,0.693 L 3.351,39.065 55.706,134.53 a 8.057,8.057 0 0 0 2.196,-0.693 l 48.889,-28.2 z"
             fill="url(#f)"
             fill-rule="evenodd"
             transform="translate(0,-9.246)"
             id="path37"
             style="fill:url(#f)" /><path
             fill="url(#g)"
             fill-rule="evenodd"
             d="m 111.3,104.712 -0.347,-0.578 v 0.809 l 0.346,-0.231 z"
             transform="translate(0,-9.246)"
             id="path38"
             style="fill:url(#g)" /><path
             d="m 106.792,105.636 -48.773,28.085 a 6.973,6.973 0 0 1 -2.196,0.693 l 0.925,1.734 54.089,-31.32 v -0.694 l -1.387,-2.312 c -0.231,1.618 -1.271,3.005 -2.658,3.814 z"
             fill="url(#h)"
             fill-rule="evenodd"
             transform="translate(0,-9.246)"
             id="path39"
             style="fill:url(#h)" /><path
             d="m 106.792,105.636 -48.773,28.085 a 6.973,6.973 0 0 1 -2.196,0.693 l 0.925,1.734 54.089,-31.32 v -0.694 l -1.387,-2.312 c -0.231,1.618 -1.271,3.005 -2.658,3.814 z"
             fill="url(#i)"
             fill-rule="evenodd"
             transform="translate(0,-9.246)"
             id="path40"
             style="fill:url(#i)" /></g></g></g></g></svg>
