<?xml version="1.0" encoding="UTF-8" standalone="no"?>
<!-- Created with Inkscape (http://www.inkscape.org/) -->

<svg
   width="79.375mm"
   height="79.375mm"
   viewBox="0 0 79.375002 79.374998"
   version="1.1"
   id="svg1"
   xml:space="preserve"
   xmlns:inkscape="http://www.inkscape.org/namespaces/inkscape"
   xmlns:sodipodi="http://sodipodi.sourceforge.net/DTD/sodipodi-0.dtd"
   xmlns="http://www.w3.org/2000/svg"
   xmlns:svg="http://www.w3.org/2000/svg"><sodipodi:namedview
     id="namedview1"
     pagecolor="#505050"
     bordercolor="#eeeeee"
     borderopacity="1"
     inkscape:showpageshadow="0"
     inkscape:pageopacity="0"
     inkscape:pagecheckerboard="0"
     inkscape:deskcolor="#505050"
     inkscape:document-units="mm"
     showborder="false" /><defs
     id="defs1" /><g
     inkscape:label="Layer 1"
     inkscape:groupmode="layer"
     id="layer1"
     transform="translate(-67.751392,-41.549104)"><g
       id="g4"
       transform="translate(122.20277,5.260384)"><rect
         style="fill:#e2e8f0;fill-opacity:1;stroke-width:0.115952;stroke-linecap:square;paint-order:markers fill stroke"
         id="rect1"
         width="79.375"
         height="79.375"
         x="-54.451378"
         y="36.288719" /><path
         d="m 4.4804657,94.696507 -26.0575597,8.476903 a 1.0969626,1.1969816 0 0 1 -1.39367,-1.38165 l 9.31061,-49.044319 a 0.89846461,0.98038482 0 0 1 1.69036,-0.21432 L 5.2661057,92.799577 a 1.2536716,1.367979 0 0 1 -0.78564,1.89693 z m 4.46934,-2.00181 -19.9521797,-46.622993 v 0 a 3.1989521,3.4906261 0 0 0 -2.73509,-2.01321 3.1613421,3.4495869 0 0 0 -2.92524,1.662095 l -21.63628,38.574723 a 3.3264088,3.6297041 0 0 0 0.0376,3.875942 l 10.58099,18.032236 a 3.4016291,3.7117829 0 0 0 3.8237,1.54581 L 6.8582557,97.756217 a 3.3431242,3.6479435 0 0 0 2.08945,-5.05696 z"
         style="fill:#0096ff;fill-rule:evenodd;stroke-width:2.18263"
         id="path1-1" /></g></g></svg>
