<?xml version="1.0" encoding="UTF-8" standalone="no"?>
<!-- Created with Inkscape (http://www.inkscape.org/) -->

<svg
   width="79.375mm"
   height="79.374992mm"
   viewBox="0 0 79.375002 79.374991"
   version="1.1"
   id="svg1"
   xml:space="preserve"
   xmlns:inkscape="http://www.inkscape.org/namespaces/inkscape"
   xmlns:sodipodi="http://sodipodi.sourceforge.net/DTD/sodipodi-0.dtd"
   xmlns="http://www.w3.org/2000/svg"
   xmlns:svg="http://www.w3.org/2000/svg"><sodipodi:namedview
     id="namedview1"
     pagecolor="#505050"
     bordercolor="#eeeeee"
     borderopacity="1"
     inkscape:showpageshadow="0"
     inkscape:pageopacity="0"
     inkscape:pagecheckerboard="0"
     inkscape:deskcolor="#505050"
     inkscape:document-units="mm"
     showborder="false" /><defs
     id="defs1" /><g
     inkscape:label="Layer 1"
     inkscape:groupmode="layer"
     id="layer1"
     transform="translate(-69.032005,-40.636585)"><rect
       style="fill:#e2e8f0;fill-opacity:1;stroke-width:0.115952;stroke-linecap:square;paint-order:markers fill stroke"
       id="rect1"
       width="79.375"
       height="79.375"
       x="69.032005"
       y="40.636585" /><g
       fill="#00d8ff"
       fill-rule="evenodd"
       id="g1"
       transform="matrix(2.6467659,0,0,2.9748515,76.969502,45.599232)"><circle
         cx="11.996"
         cy="11.653"
         r="2.142"
         id="circle1" /><path
         fill-rule="nonzero"
         d="m 11.995772,7.8091416 c 2.76801,0 5.397458,0.3902499 7.396477,1.078439 2.220138,0.7643002 3.574384,1.8943024 3.574384,2.7649774 0,0.927439 -1.462552,2.131476 -3.837317,2.918305 -1.890581,0.626397 -4.42007,0.967816 -7.133544,0.967816 -2.8505717,0 -5.4085936,-0.334766 -7.2772404,-0.973494 C 3.5486697,14.165325 2.5825666,13.645671 1.9203729,13.078582 1.3253284,12.568998 1.024911,12.063063 1.024911,11.652558 1.024911,10.778955 2.32734,9.6646478 4.4995968,8.9072939 6.4994525,8.2101 9.1932576,7.8091416 11.995772,7.8091416 v 0 0 0 0 m 0,-1.024911 c -2.9113921,0 -5.7180221,0.4177518 -7.8335781,1.1552814 C 1.6221454,8.8250959 0,10.212939 0,11.652558 c 0,1.486867 1.7414023,2.978167 4.3870393,3.882449 1.9886331,0.679741 4.6542111,1.028583 7.6087327,1.028583 2.81578,0 5.451683,-0.355782 7.455892,-1.019827 2.750393,-0.911286 4.53988,-2.38447 4.53988,-3.891205 0,-1.444822 -1.674475,-2.8420288 -4.265674,-3.7340698 C 17.612866,7.1910585 14.871718,6.7842306 11.995772,6.7842306 v 0 0 0 0 M 8.6478258,9.7431867 C 10.030629,7.3453792 11.682299,5.2625143 13.277115,3.8745986 c 1.771217,-1.5414087 3.42665,-2.150042 4.18089,-1.715093 0.803422,0.4633063 1.115813,2.3318173 0.611041,4.7820365 -0.401873,1.9506975 -1.369772,4.3124919 -2.725329,6.6630949 -1.424065,2.469381 -2.991957,4.518047 -4.478827,5.817732 -0.9308197,0.813668 -1.8636133,1.390966 -2.6856799,1.681297 -0.7387018,0.260888 -1.3270669,0.268376 -1.6826978,0.0633 C 5.7397481,20.730524 5.4251251,19.045619 5.8542646,16.785505 6.2493245,14.704842 7.247721,12.171016 8.6478267,9.7431851 l -9e-7,1.6e-6 v 0 0 0 M 7.759974,9.2311693 C 6.3054746,11.75332 5.2652598,14.393277 4.8473436,16.594317 c -0.5017952,2.642764 -0.1099384,4.741281 1.1371527,5.460497 1.2880825,0.742793 3.4498952,-0.0207 5.5549197,-1.860786 1.582339,-1.383135 3.216158,-3.517944 4.692155,-6.077377 1.406665,-2.439227 2.415281,-4.900375 2.841305,-6.9683069 0.584618,-2.8377967 0.202395,-5.123998 -1.102869,-5.8766993 -1.251602,-0.72176388 -3.298473,0.030785 -5.365723,1.8298165 -1.685753,1.4670556 -3.4075845,3.638399 -4.844309,6.1297063 l -1e-6,1.7e-6 v 0 0 0 M 8.6510293,13.610216 C 7.2642358,11.214704 6.2845788,8.7435372 5.8786206,6.6687056 5.4277495,4.364397 5.7272071,2.6262057 6.4807273,2.1899964 7.2833785,1.7253175 9.0582118,2.3878371 10.928859,4.0488367 c 1.489332,1.3223571 3.052091,3.3403823 4.411614,5.6887692 1.428191,2.4669821 2.42008,4.8484981 2.803544,6.7857601 0.240069,1.212788 0.274369,2.30924 0.115347,3.16644 -0.142896,0.770271 -0.430249,1.283739 -0.785533,1.489415 -0.756068,0.437698 -2.372965,-0.131188 -4.116712,-1.631725 -1.605285,-1.381383 -3.301907,-3.511803 -4.706093,-5.937285 l 3.3e-6,5e-6 v 0 0 0 m -0.8869948,0.513501 c 1.458734,2.519705 3.2264145,4.739352 4.9245695,6.200651 2.038979,1.754591 4.052802,2.463131 5.29872,1.741853 1.286824,-0.744952 1.70501,-2.999165 1.162096,-5.741869 C 18.741335,14.262701 17.70774,11.781049 16.227469,9.2241064 14.81669,6.7871817 13.188186,4.6842595 11.609353,3.2824351 9.4428116,1.3587035 7.271221,0.54808017 5.9672327,1.3029981 4.7168222,2.0268549 4.3465539,4.1760652 4.8727821,6.8655093 5.3018876,9.0586454 6.3231604,11.634787 7.7640312,14.123711 l 3.3e-6,6e-6 v 0 0 0"
         id="path1-1" /></g></g></svg>
