<?xml version="1.0" encoding="UTF-8" standalone="no"?>
<!-- Created with Inkscape (http://www.inkscape.org/) -->

<svg
   width="79.375mm"
   height="79.375mm"
   viewBox="0 0 79.375002 79.374998"
   version="1.1"
   id="svg1"
   xml:space="preserve"
   xmlns:inkscape="http://www.inkscape.org/namespaces/inkscape"
   xmlns:sodipodi="http://sodipodi.sourceforge.net/DTD/sodipodi-0.dtd"
   xmlns="http://www.w3.org/2000/svg"
   xmlns:svg="http://www.w3.org/2000/svg"><sodipodi:namedview
     id="namedview1"
     pagecolor="#505050"
     bordercolor="#eeeeee"
     borderopacity="1"
     inkscape:showpageshadow="0"
     inkscape:pageopacity="0"
     inkscape:pagecheckerboard="0"
     inkscape:deskcolor="#505050"
     inkscape:document-units="mm"
     showborder="false" /><defs
     id="defs1" /><g
     inkscape:label="Layer 1"
     inkscape:groupmode="layer"
     id="layer1"
     transform="translate(-67.751388,-41.549103)"><rect
       style="fill:#e2e8f0;fill-opacity:1;stroke-width:0.115952;stroke-linecap:square;paint-order:markers fill stroke"
       id="rect1"
       width="79.375"
       height="79.375"
       x="67.751389"
       y="41.549103" /><g
       style="fill:none"
       id="g6"
       transform="matrix(2.1166671,0,0,2.2678555,73.57222,44.94867)"><path
         d="m 21.7868,21.556 c 1.1071,-0.1127 1.947,-1.051 1.9088,-2.1771 -0.0381,-1.1259 -0.9926,-2.0267 -2.1379,-2.0267 h -0.0763 c -1.1836,0.0375 -2.0997,1.0134 -2.0615,2.1769 0.0382,0.563 0.2672,1.0509 0.6108,1.3887 -1.298,2.5148 -3.2832,4.3539 -6.2609,5.8928 -2.0234,1.0509 -4.123,1.4263 -6.22265,1.1636 C 5.82918,27.749 4.49301,26.9984 3.65301,25.7596 2.43144,23.9205 2.31695,21.9312 3.34773,19.942 4.07312,18.5157 5.21828,17.4647 5.94367,16.9392 5.79098,16.4513 5.56187,15.6256 5.44738,15.0251 c -5.5355844,3.941 -4.962889,9.2708 -3.28312,11.7855 1.25976,1.8767 3.81761,3.0403 6.64265,3.0403 0.76348,0 1.52699,-0.0752 2.29059,-0.2627 4.8866,-0.9384 8.5897,-3.791 10.6893,-8.0322 z m 6.7191,-4.6542 C 25.6045,13.5613 21.3287,11.7222 16.4421,11.7222 h -0.6107 c -0.3436,-0.6756 -1.069,-1.1261 -1.8707,-1.1261 h -0.0764 c -1.1834,0.0376 -2.0995,1.0134 -2.0614,2.177 0.0382,1.126 0.9925,2.0268 2.1378,2.0268 h 0.0763 c 0.8399,-0.0375 1.5653,-0.563 1.8707,-1.2762 h 0.6871 c 2.9015,0 5.6501,0.8257 8.1317,2.4397 1.9087,1.2386 3.2831,2.8526 4.0466,4.8043 0.649,1.5764 0.6108,3.1153 -0.0764,4.429 -1.0689,1.9892 -2.8631,3.0777 -5.2301,3.0777 -1.5271,0 -2.9777,-0.4504 -3.7413,-0.7882 -0.4199,0.3753 -1.1835,0.9758 -1.718,1.3513 1.6417,0.7506 3.3214,1.1635 4.9248,1.1635 3.6649,0 6.3755,-1.9894 7.4063,-3.9786 1.107,-2.177 1.0306,-5.9303 -1.8325,-9.1206 z M 9.1123,22.1939 c 0.03821,1.126 0.9926,2.0267 2.1379,2.0267 h 0.0764 C 12.51,24.1832 13.4262,23.2073 13.388,22.0438 13.3499,20.9177 12.3954,20.017 11.2502,20.017 h -0.0763 c -0.0764,0 -0.191,0 -0.2672,0.0374 C 9.3414,17.5022 8.69242,14.7248 8.92152,11.7221 9.0741,9.47006 9.83769,7.51828 11.1739,5.9043 c 1.107,-1.38875 3.2449,-2.06434 4.6957,-2.10178 4.0466,-0.07512 5.7644,4.87927 5.879,6.86858 0.4963,0.1126 1.3362,0.3754 1.9089,0.5631 -0.4582,-6.08038 -4.2758,-9.23322 -7.9406,-9.23322 -3.436,0 -6.6046,2.43969 -7.86448,6.04289 C 6.09637,12.8481 7.24164,17.4647 9.37949,21.1055 9.18871,21.3682 9.0741,21.7811 9.1123,22.194 Z"
         fill="#764abc"
         id="path1" /></g></g></svg>
