<?xml version="1.0" encoding="UTF-8" standalone="no"?>
<!-- Created with Inkscape (http://www.inkscape.org/) -->

<svg
   width="140.73166mm"
   height="125.31873mm"
   viewBox="0 0 140.73166 125.31873"
   version="1.1"
   id="svg1"
   xml:space="preserve"
   inkscape:export-filename="backend-u.svg"
   inkscape:export-xdpi="96"
   inkscape:export-ydpi="96"
   inkscape:version="1.3.1 (91b66b0783, 2023-11-16)"
   sodipodi:docname="frontend-u.svg"
   xmlns:inkscape="http://www.inkscape.org/namespaces/inkscape"
   xmlns:sodipodi="http://sodipodi.sourceforge.net/DTD/sodipodi-0.dtd"
   xmlns="http://www.w3.org/2000/svg"
   xmlns:svg="http://www.w3.org/2000/svg"><sodipodi:namedview
     id="namedview1"
     pagecolor="#505050"
     bordercolor="#eeeeee"
     borderopacity="1"
     inkscape:showpageshadow="0"
     inkscape:pageopacity="0"
     inkscape:pagecheckerboard="0"
     inkscape:deskcolor="#505050"
     inkscape:document-units="mm"
     inkscape:zoom="0.65386545"
     inkscape:cx="331.87256"
     inkscape:cy="584.98274"
     inkscape:window-width="1366"
     inkscape:window-height="697"
     inkscape:window-x="-8"
     inkscape:window-y="-8"
     inkscape:window-maximized="1"
     inkscape:current-layer="g5"
     showgrid="false" /><defs
     id="defs1" /><g
     inkscape:label="Layer 1"
     inkscape:groupmode="layer"
     id="layer1"
     transform="translate(-34.926853,-85.955019)"><g
       id="g5"
       transform="matrix(0.26458333,0,0,0.26458333,37.561466,82.197303)"
       style="stroke:#010101;stroke-opacity:1">
	
	
	<g
   id="g1"><rect
     x="238.93607"
     y="369.31165"
     style="fill:#00CC00;stroke-width:0.397689"
     width="34.111881"
     height="96.440315"
     id="rect1"
     ry="32.731155" /><path
     style="fill:#00CC00;stroke:none;stroke-width:0.999999;stroke-opacity:1"
     d="M 377.45599,487.84799 H 134.544 c -9.424,0 -17.12,-7.71201 -17.12,-17.12001 v 0 c 0,-9.42399 7.712,-17.12002 17.12,-17.12002 h 242.89597 c 9.42402,0 17.12001,7.71202 17.12001,17.12002 v 0 c 0.0151,9.408 -7.69599,17.12001 -17.10399,17.12001 z"
     id="path1" /><g
     id="g8"><path
       style="fill:none;fill-opacity:1;stroke:#00CC00;stroke-width:5.265;stroke-linejoin:miter;stroke-miterlimit:4;stroke-dasharray:none;stroke-opacity:1"
       d="M 164.55934,181.72085 H 46.026021 c -4.656667,0 -8.466667,-3.81 -8.466667,-8.46667 V 97.054186 c 0,-4.656666 3.81,-8.466666 8.466667,-8.466666 H 164.55934 c 4.65667,0 8.46667,0.662601 8.46667,5.319267 v 79.347393 c 0,4.65667 -3.81,8.46667 -8.46667,8.46667 z"
       id="path2"
       sodipodi:nodetypes="sssssssss"
       transform="matrix(3.7795276,0,0,3.7795276,-141.9646,-310.66698)" /><g
       id="g7"
       transform="translate(-0.00799929,-3.0960025)"><path
         style="fill:#00CC00;fill-opacity:1;stroke:none;stroke-opacity:1"
         d="m 119.664,196.28 91.824,-44.56 v 17.424 l -72.832,33.904 v 0.384 l 72.832,34.096 v 17.248 l -91.824,-44.544 z"
         id="path3" /><path
         style="fill:#00CC00;fill-opacity:1;stroke:none;stroke-opacity:1"
         d="m 224.928,273.472 47.28,-140.448 h 16.656 l -47.28,140.448 z"
         id="path4" /><path
         style="fill:#00CC00;fill-opacity:1;stroke:none;stroke-opacity:1"
         d="m 392.336,210.608 -91.824,44.176 v -17.248 l 74.016,-34.096 v -0.384 L 300.512,168.96 v -17.248 l 91.824,44.176 z"
         id="path5" /></g></g></g>
</g></g></svg>
