<?xml version="1.0" encoding="UTF-8" standalone="no"?>
<!-- Created with Inkscape (http://www.inkscape.org/) -->

<svg
   width="1920mm"
   height="1080mm"
   viewBox="0 0 1920 1080"
   version="1.1"
   id="svg1"
   inkscape:export-filename="hero-bg2.png"
   inkscape:export-xdpi="232.22856"
   inkscape:export-ydpi="232.22856"
   xmlns:inkscape="http://www.inkscape.org/namespaces/inkscape"
   xmlns:sodipodi="http://sodipodi.sourceforge.net/DTD/sodipodi-0.dtd"
   xmlns="http://www.w3.org/2000/svg"
   xmlns:svg="http://www.w3.org/2000/svg">
  <sodipodi:namedview
     id="namedview1"
     pagecolor="#505050"
     bordercolor="#eeeeee"
     borderopacity="1"
     inkscape:showpageshadow="0"
     inkscape:pageopacity="0"
     inkscape:pagecheckerboard="0"
     inkscape:deskcolor="#505050"
     inkscape:document-units="mm"
     shape-rendering="auto"
     inkscape:export-bgcolor="#ffffff00" />
  <defs
     id="defs1">
    <inkscape:path-effect
       effect="interpolate"
       id="path-effect49"
       is_visible="true"
       lpeversion="1"
       trajectory="m 1473.1806,798.20667 18.362,3.29029"
       equidistant_spacing="true"
       steps="23" />
    <inkscape:path-effect
       effect="spiro"
       id="path-effect48"
       is_visible="true"
       lpeversion="1" />
    <inkscape:path-effect
       effect="simplify"
       id="path-effect47"
       is_visible="true"
       lpeversion="1.3"
       threshold="175.676"
       steps="1"
       smooth_angles="360"
       helper_size="0"
       simplify_individual_paths="false"
       simplify_just_coalesce="false" />
    <inkscape:path-effect
       effect="interpolate"
       id="path-effect15"
       is_visible="true"
       lpeversion="1"
       trajectory="M 186.55491,88.127168 305.58381,214.02312"
       equidistant_spacing="true"
       steps="14" />
    <inkscape:path-effect
       effect="spiro"
       id="path-effect14"
       is_visible="true"
       lpeversion="1" />
    <inkscape:path-effect
       effect="simplify"
       id="path-effect13"
       is_visible="true"
       lpeversion="1.3"
       threshold="175.676"
       steps="1"
       smooth_angles="360"
       helper_size="0"
       simplify_individual_paths="false"
       simplify_just_coalesce="false" />
    <inkscape:path-effect
       effect="interpolate"
       id="path-effect5"
       is_visible="true"
       lpeversion="1"
       trajectory="M 545.93062,358.23121 509.30635,333.05202"
       equidistant_spacing="true"
       steps="14" />
    <inkscape:path-effect
       effect="spiro"
       id="path-effect4"
       is_visible="true"
       lpeversion="1" />
    <inkscape:path-effect
       effect="simplify"
       id="path-effect3"
       is_visible="true"
       lpeversion="1.3"
       threshold="175.676"
       steps="1"
       smooth_angles="360"
       helper_size="0"
       simplify_individual_paths="false"
       simplify_just_coalesce="false" />
  </defs>
  <g
     inkscape:label="Layer 1"
     inkscape:groupmode="layer"
     id="layer1">
    <path
       id="path2"
       style="fill:none;stroke:#11a200;stroke-width:0.2;stroke-linecap:square;stroke-dasharray:none;paint-order:markers fill stroke"
       d="M -139.63006,725.61849 C -24.78974,674.22183 87.476626,617.07446 196.60777,554.46208 c 50.66962,-29.07095 100.79635,-59.38781 154.09817,-83.29277 53.30181,-23.90496 110.30134,-41.37348 168.69051,-43.17201 56.16698,-1.73008 111.61264,11.00171 167.04115,20.24305 55.42851,9.24134 113.12983,14.91129 167.14952,-0.56756 55.76498,-15.97895 103.32751,-53.54105 141.15798,-97.51736 37.8305,-43.9763 67.0604,-94.52827 97.1162,-144.14387 44.307,-73.1412 90.8801,-144.909612 139.63,-215.1676291 M -136.98889,730.02045 C -26.568441,677.88696 81.946467,620.88963 187.93477,559.3653 c 52.02383,-30.56302 103.91398,-61.7585 158.99945,-86.44459 53.07912,-23.79269 109.6743,-41.38639 167.57873,-44.45026 55.85316,-3.00067 111.06699,7.41329 166.21517,14.47811 55.14819,7.06482 112.37236,10.68946 166.02969,-5.5058 55.26837,-16.65688 102.79683,-53.53459 141.02698,-96.78542 39.06851,-43.92395 69.63211,-94.61033 100.24191,-144.89037 43.7647,-71.99597 88.9052,-143.182746 135.1889,-213.198717 M -134.34771,734.4224 C -28.347143,681.55209 76.416308,624.70481 179.26178,564.26852 c 53.37803,-32.05508 107.03159,-64.12918 163.90073,-89.59641 52.85642,-23.68041 109.04726,-41.3993 166.46694,-45.7285 55.53935,-4.27128 110.52134,3.82486 165.3892,8.71316 54.86785,4.8883 111.61488,6.46762 164.90986,-10.44403 54.77175,-17.33482 102.26613,-53.52814 140.89598,-96.05349 40.30661,-43.87161 72.20381,-94.6924 103.36761,-145.63687 43.2225,-70.85074 86.9303,-141.455879 130.7478,-211.229805 M -131.70654,738.82436 C -30.125844,685.21722 70.886149,628.51999 170.58878,569.17174 225.32102,535.62459 280.738,502.67187 339.39079,476.42352 c 52.63373,-23.56815 108.42022,-41.41222 165.35515,-47.00676 55.22555,-5.54188 109.97571,0.23644 164.56323,2.94822 54.58752,2.71178 110.85741,2.24579 163.79003,-15.38227 54.27514,-18.01275 101.73545,-53.52168 140.76498,-95.32156 41.54472,-43.81925 74.77542,-94.77445 106.49332,-146.38335 42.6802,-69.70552 84.9554,-139.729022 126.3068,-209.260902 M -129.06536,743.22631 c 97.160814,-54.34396 194.42135,-110.89115 290.98115,-169.15136 56.08644,-35.03921 113.26683,-68.87054 173.70329,-95.90003 52.41102,-23.45588 107.79318,-41.42513 164.24336,-48.285 54.91173,-6.81249 109.43006,-3.35199 163.73725,-2.81673 54.3072,0.53526 110.09995,-1.97604 162.6702,-20.32051 53.77853,-18.69068 101.20476,-53.51521 140.63399,-94.58962 42.78272,-43.76691 77.34712,-94.85652 109.61902,-147.12985 42.138,-68.560285 82.9806,-138.002156 121.8657,-207.29199 M -126.42419,747.62827 c 92.740943,-55.0808 186.25002,-111.47793 279.66698,-168.6501 57.44065,-36.53128 116.38446,-71.24123 178.60457,-99.05185 52.18833,-23.3436 107.16615,-41.43804 163.13158,-49.56325 54.59792,-8.08309 108.88441,-6.94041 162.91127,-8.58167 54.02687,-1.64126 109.34248,-6.19788 161.55037,-25.25874 53.28192,-19.36862 100.67408,-53.50876 140.50299,-93.85769 44.02083,-43.71456 79.91883,-94.93858 112.74473,-147.87635 41.5958,-67.415055 81.0057,-136.275289 117.4246,-205.323078 M -123.78302,752.03023 C -35.461949,696.2126 54.295671,639.96552 144.5698,583.88139 c 58.79485,-38.02335 119.50208,-73.61191 183.50585,-102.20366 51.96563,-23.23134 106.5391,-41.45096 162.01979,-50.84151 54.28411,-9.35369 108.33876,-10.52883 162.0853,-14.34661 53.74653,-3.81777 108.585,-10.41971 160.43054,-30.19698 52.7853,-20.04655 100.14339,-53.5023 140.37199,-93.12575 45.25891,-43.66221 82.49053,-95.02065 115.87033,-148.62285 41.0536,-66.269825 79.0309,-134.5484227 112.9836,-203.354166 M -121.14184,756.43218 C -37.240651,699.87773 48.765512,643.78069 135.8968,588.78461 c 60.14906,-39.51542 122.6197,-75.9826 188.40713,-105.35548 51.74294,-23.11907 105.91207,-41.46387 160.908,-52.11975 53.9703,-10.62429 107.79312,-14.11726 161.25933,-20.11156 53.46621,-5.99429 107.82753,-14.64155 159.31071,-35.13521 52.28869,-20.72448 99.6127,-53.49584 140.24099,-92.39383 46.49699,-43.60986 85.06224,-95.1027 118.99604,-149.36934 40.5114,-65.124595 77.056,-132.8215562 108.5426,-201.385253 M -118.50067,760.83414 c 79.481318,-57.29128 161.736023,-113.23827 245.72448,-167.14631 61.50326,-41.00748 125.73732,-78.35328 193.30841,-108.5073 51.52024,-23.00679 105.28503,-41.47678 159.79621,-53.398 53.65649,-11.89489 107.24747,-17.70568 160.43335,-25.8765 53.18588,-8.17081 107.07006,-18.86338 158.19088,-40.07345 51.79208,-21.40241 99.08202,-53.48938 140.10999,-91.66189 47.73507,-43.55751 87.63395,-95.18477 122.12175,-150.11583 39.9691,-63.979375 75.0812,-131.0946996 104.1015,-199.416351 M -115.8595,765.2361 C -40.798054,707.20799 37.705194,651.41105 118.55082,598.59105 181.40828,556.0915 247.40575,517.86708 316.7605,486.93193 c 51.29755,-22.89452 104.65799,-41.48969 158.68443,-54.67625 53.34268,-13.16549 106.70183,-21.2941 159.60738,-31.64144 52.90555,-10.34733 106.31258,-23.08521 157.07104,-45.01169 51.29547,-22.08034 98.55133,-53.48292 139.979,-90.92995 48.97314,-43.50517 90.20565,-95.26684 125.24745,-150.86233 39.4269,-62.834145 73.1063,-129.367833 99.6604,-197.447439 M -113.21832,769.63805 c 70.641565,-58.76493 145.393354,-114.41183 223.09614,-166.14378 64.21167,-43.99162 131.97256,-83.09466 203.11097,-114.81093 51.07485,-22.78226 104.03095,-41.50261 157.57263,-55.9545 53.02887,-14.4361 106.15619,-24.88253 158.78141,-37.40638 52.62522,-12.52386 105.55512,-27.30706 155.95121,-49.94993 50.79886,-22.75828 98.02065,-53.47647 139.848,-90.19803 50.21122,-43.45281 92.77726,-95.34889 128.37316,-151.60882 38.8846,-61.688914 71.1314,-127.640966 95.2193,-195.478526 M -110.57715,774.04001 C -44.355457,714.53825 26.644875,659.0414 101.20483,608.39749 166.7707,562.9138 236.295,522.93215 309.21707,490.43474 c 50.85216,-22.66998 103.40391,-41.51552 156.46085,-57.23275 52.71506,-15.7067 105.61054,-28.47095 157.95543,-43.17132 52.34489,-14.70038 104.79765,-31.52889 154.83139,-54.88817 50.30224,-23.43621 97.48995,-53.47 139.717,-89.46609 51.44929,-43.40046 95.34896,-95.43096 131.49886,-152.355319 38.3424,-60.543685 69.1565,-125.914101 90.7783,-193.509611 M -107.93597,778.44196 C -46.134158,718.20338 21.114716,662.85658 92.531831,613.30071 159.45191,566.32495 230.73963,525.46468 305.44536,492.18614 c 50.62946,-22.55771 102.77687,-41.52843 155.34906,-58.511 52.40125,-16.9773 105.06489,-32.05937 157.12945,-48.93626 52.06457,-16.87689 104.04018,-35.75073 153.71156,-59.8264 49.80563,-24.11415 96.95927,-53.46355 139.586,-88.73416 C 963.9088,192.8302 1009.1421,140.6653 1045.846,83.076503 1083.6461,23.678046 1113.0276,-41.110733 1132.1832,-108.4642 M -105.2948,782.84392 C -47.91286,721.86851 15.584557,666.67175 83.858836,618.20393 152.13311,569.73611 225.18426,527.99722 301.67364,493.93754 352.0804,471.49211 403.82348,452.3962 455.91092,434.1483 c 52.08743,-18.2479 104.51924,-35.6478 156.30348,-54.70121 51.78423,-19.05341 103.2827,-39.97256 152.59172,-64.76464 49.30902,-24.79208 96.42858,-53.45709 139.45501,-88.00222 53.92544,-43.29577 100.49237,-95.59509 137.75027,-153.848315 37.2579,-58.253229 65.2068,-122.460372 81.8961,-189.571795"
       inkscape:original-d="m -139.63006,725.61849 c 23.278,-20.16477 44.605494,-37.32821 73.248558,-48.06937 22.486704,-8.43251 46.000785,-4.64415 68.6705193,-11.44508 C 15.275116,662.20821 114.01528,625.3373 121.31792,618.03467 c 25.09064,-25.09065 69.38452,-62.21145 100.71676,-80.11559 16.90564,-9.66036 46.03959,-13.99337 59.51445,-27.46822 7.30308,-7.30309 21.65458,-12.4985 29.75723,-20.60115 28.98175,-28.98177 77.52112,-64.05856 119.0289,-68.67051 60.88113,-6.76458 117.86394,15.79012 176.25433,27.46819 39.61093,7.92218 89.6307,-1.7953 130.47398,2.28902 45.39305,4.53929 89.58564,9.34852 132.76302,-9.15607 44.18383,-18.93594 67.33286,-61.58886 98.42772,-96.13873 31.28005,-34.75559 69.00429,-61.64842 98.42779,-98.42774 10.1312,-12.66402 15.5218,-28.32585 25.1792,-41.20231 13.0234,-17.36466 29.9309,-31.37969 43.4913,-48.06937 41.6938,-51.31544 69.2837,-113.38832 96.1387,-167.0982591 M -105.2948,782.84392 c 91.986533,-119.19799 177.59246,-271.204 343.3526,-290.70519 56.71671,-6.67256 112.86367,14.73848 169.38727,16.02311 91.73395,2.08486 173.53738,-16.65436 256.36995,-57.22543 16.34522,-8.00582 30.34633,-20.11096 45.78035,-29.75721 94.7289,-59.20558 111.91531,-79.87213 176.25433,-169.3873 24.2279,-33.70838 50.10327,-66.25602 73.24855,-100.71676 47.84945,-71.242579 85.83295,-148.9856953 130.47405,-222.034677 10.964,-17.941184 23.3122,-29.245863 34.3352,-45.780343"
       inkscape:path-effect="#path-effect3;#path-effect4;#path-effect5" />
    <path
       id="path12"
       style="fill:none;stroke:#11a200;stroke-width:0.2;stroke-linecap:square;stroke-dasharray:none;paint-order:markers fill stroke"
       inkscape:path-effect="#path-effect13;#path-effect14;#path-effect15"
       inkscape:original-d="M -86.982659,215.16763 C -60.834092,187.86784 -23.566314,172.90985 4.5780346,148.78613 13.372293,141.24819 18.641728,133.74272 29.757224,128.18497 67.61618,109.25549 105.91855,102.54511 146.49711,93.84971 174.52717,87.843269 201.74854,75.432565 228.90173,66.381502 272.35234,51.897962 316.28437,40.261164 359.37571,25.17919 382.65348,17.031972 407.57445,4.4917838 428.04625,-9.1560691 440.10413,-17.194657 446.51966,-32.126891 460.09247,-38.913294 M -98.427745,455.51444 C -58.860695,428.27455 -38.74258,375.6039 0,347.93062 c 47.59118,-33.99369 80.356675,-28.31155 132.763,-45.78035 34.27249,-11.42415 66.78066,-28.69951 100.71677,-41.2023 44.139,-16.26173 90.32464,-32.43865 132.76301,-52.6474 18.92054,-9.00979 35.52677,-23.22367 54.93642,-32.04624 30.75318,-13.97872 64.40336,-24.63874 93.84969,-41.20231 39.88295,-22.43415 71.85443,-57.059016 109.87283,-82.404623 12.28217,-8.188113 32.83802,-15.292975 43.49133,-27.468207 15.76814,-18.0207293 22.36544,-40.089485 41.20232,-52.647398"
       d="M -86.982659,215.16763 C -13.772405,159.99804 69.228771,117.8598 156.97192,91.316165 203.42675,77.262875 251.10956,67.562124 297.5711,53.531064 344.03265,39.500003 389.8421,20.777006 428.04625,-9.1560691 439.53432,-18.157007 450.2664,-28.122517 460.09247,-38.913294 M -87.863051,233.65585 C -17.326896,178.54359 63.199793,136.13752 148.67432,109.14668 198.33466,92.408821 250.16526,82.102266 300.35809,66.549097 349.35792,51.420758 397.42829,31.067341 437.98851,-0.31307501 452.83504,-11.625985 466.67415,-24.266143 479.285,-38.032902 M -88.743442,252.14406 C -20.881386,197.08913 57.170816,154.41524 140.37671,126.97719 193.24258,107.55477 249.22096,96.642409 303.14507,79.56713 354.68319,63.341513 405.01447,41.357675 447.93077,8.5299191 466.13576,-5.0949626 483.08189,-20.40977 498.47753,-37.152511 M -89.623834,270.63228 C -24.435877,215.63468 51.141838,172.69296 132.07911,144.8077 188.1505,122.70071 248.27666,111.18255 305.93206,92.585163 360.00846,75.262268 412.60066,51.64801 457.87303,17.372913 479.43648,1.4360597 499.48964,-16.553396 517.67006,-36.272119 M -90.504226,289.1205 C -27.990367,234.18022 45.11286,190.97068 123.7815,162.63822 183.05841,137.84666 247.33236,125.72269 308.71904,105.6032 365.33373,87.183022 420.18684,61.938345 467.81529,26.215907 c 24.92192,-18.248825 48.0821,-38.912929 69.0473,-61.607634 M -91.384617,307.60871 C -31.544858,252.72577 39.083882,209.2484 115.4839,180.46873 177.96633,152.99261 246.38806,140.26284 311.50603,118.62123 370.659,99.103777 427.77303,72.22868 477.75755,35.058901 506.03793,14.498104 532.30514,-8.8406487 556.05512,-34.511336 M -92.265009,326.09693 C -35.099348,271.27131 33.054904,227.52612 107.18629,198.29924 172.87424,168.13855 245.44376,154.80298 314.29302,131.63926 375.98427,111.02453 435.35921,82.519015 487.69981,43.901895 519.33865,21.029127 548.71289,-4.9842752 575.24765,-33.630944 M -93.145401,344.58515 C -38.653839,289.81686 27.025926,245.80384 98.888686,216.12976 167.78216,183.2845 244.49946,169.34312 317.08,144.65729 c 64.22953,-21.712 125.8654,-51.84794 180.56207,-91.9124 34.9973,-25.184741 67.47856,-53.8727916 96.79811,-85.495442 M -94.025792,363.07336 C -42.208329,308.3624 20.996948,264.08156 90.591081,233.96027 162.69007,198.43044 243.55516,183.88326 319.86699,157.67533 386.6348,134.86604 450.53159,103.09968 507.58434,61.587884 545.9401,34.091171 581.52838,2.728472 613.63271,-31.870161 M -94.906184,381.56158 C -45.76282,326.90795 14.96797,282.35928 82.293476,251.79078 157.59799,213.57639 242.61086,198.42341 322.65397,170.69336 391.96007,146.7868 458.11777,113.39002 517.5266,70.430878 559.24082,40.622194 597.93613,6.5848456 632.82524,-30.989769 M -95.786576,400.0498 C -49.31731,345.45349 8.9389923,300.637 73.995871,269.6213 152.5059,228.72233 241.66656,212.96355 325.44096,183.71139 397.28534,158.70755 465.70396,123.68035 527.46886,79.273872 572.54154,47.153216 614.34388,10.441219 652.01777,-30.109378 M -96.666967,418.53801 C -52.871801,363.99904 2.9100144,318.91473 65.698266,287.45181 147.41382,243.86828 240.72226,227.50369 328.22794,196.72943 402.61061,170.62831 473.29014,133.97069 537.41112,88.116866 585.84226,53.684238 630.75163,14.297593 671.2103,-29.228986 M -97.547359,437.02623 c 41.121068,-54.48165 94.4283954,-99.83378 154.94802,-131.74391 84.921069,-46.26809 182.377299,-63.23849 273.614269,-95.53486 76.92095,-27.1984 149.8614,-65.48644 216.33845,-112.7876 51.7896,-36.7446 99.806,-78.805894 143.04945,-125.308454 M -98.427751,455.51445 C -59.980782,401.09013 -9.1479415,355.47017 49.103056,323.11283 137.22965,274.16017 238.83366,256.58398 333.80191,222.76549 413.26115,194.46982 488.46251,154.55136 557.29564,105.80285 612.44371,66.746283 663.56712,22.01034 709.59536,-27.468203" />
    <path
       id="path46"
       style="fill:none;stroke:#11a200;stroke-width:0.2;stroke-linecap:square;stroke-dasharray:none;paint-order:markers fill stroke"
       inkscape:path-effect="#path-effect47;#path-effect48;#path-effect49"
       inkscape:original-d="m 1687.3693,685.46849 c -9.0706,-10.84969 -19.1265,-31.36468 -31.5623,-39.65522 -44.6424,-29.7616 -154.85,-43.70165 -207.1782,-43.70165 -57.2414,0 -112.8449,4.41862 -161.858,35.60876 -7.2887,4.63831 -13.0451,4.95224 -19.4229,11.33007 -28.2264,28.22633 -32.3716,77.66413 -32.3716,114.91915 0,26.92196 -3.3513,56.04137 1.6186,82.54757 2.4441,13.03551 9.5283,25.13401 14.5672,37.22732 19.4665,46.71968 43.3863,78.66578 93.8776,95.49619 47.1854,15.72848 119.7055,19.43685 168.3323,9.71148 10.6039,-2.12077 21.594,0.35539 32.3716,-3.23715 21.0823,-7.02744 40.5668,-16.49007 58.2688,-29.13443 14.6522,-10.46583 29.9571,-14.9918 40.4645,-30.75303 27.2693,-40.90394 64.3672,-48.91702 67.9804,-118.15628 0.5889,-11.28694 -7.0242,-32.85943 -4.8557,-43.70166 5.1337,-25.66847 -2.142,-55.88832 -20.2323,-78.50112 z m -64.7432,82.54757 c -18.5238,-47.26826 -52.106,-75.26396 -99.5426,-75.26396 h -87.4033 c -76.5696,0 -99.1278,112.95544 -46.9388,158.62081 21.4161,18.73916 45.0142,31.087 69.5989,45.32024 4.493,2.60119 11.754,9.60135 17.8044,11.33004 19.0439,5.44113 43.8566,-0.0564 61.506,-6.4743 65.4852,-23.81282 84.9754,-67.02227 84.9754,-133.53283 z"
       d="m 1687.3693,685.46849 c -31.5444,-26.11977 -66.1729,-48.51168 -102.9355,-66.56152 -4.6045,-2.2607 -9.2508,-4.4544 -13.9358,-6.57211 -42.1655,-19.05936 -87.4695,-31.96281 -133.6344,-32.14385 -10.2589,-0.0402 -20.5663,0.59517 -30.7887,1.92158 -40.8894,5.3056 -80.4183,21.66717 -110.0381,50.06791 -11.4071,10.93755 -21.0765,23.36656 -29.1445,36.825 -18.8255,31.40301 -28.9321,68.41067 -32.0503,105.15344 -1.0256,12.08473 -1.3565,24.25787 -0.8611,36.38375 0.7432,18.18881 3.3456,36.27129 8.2517,53.78949 4.0885,14.59851 9.8185,28.79953 17.1906,42.04653 7.3721,13.24699 16.3864,25.53996 27.0434,36.32235 16.3108,16.50272 36.1297,29.10834 57.5988,38.01701 14.3127,5.93912 29.3589,10.23515 44.588,12.9474 26.6508,4.74644 53.885,4.87826 80.86,2.06381 11.5607,-1.20619 23.0739,-2.95353 34.4731,-5.11069 37.7555,-7.14479 75.1883,-19.05972 108.0616,-38.64034 8.2183,-4.89516 16.1517,-10.26942 23.7339,-16.16803 36.2353,-28.18954 63.3845,-68.54572 73.8246,-113.13132 1.16,-4.95396 2.1137,-9.96013 2.8507,-15.00763 6.1306,-41.98733 -2.9107,-86.02701 -25.088,-122.20278 z m -2.9429,3.75216 c -31.3388,-26.39109 -66.0104,-48.89232 -102.893,-66.77534 -4.5742,-2.2233 -9.1902,-4.37792 -13.8446,-6.45512 -40.9684,-18.41302 -84.9624,-30.87575 -129.7795,-31.05273 -9.9594,-0.0393 -19.9652,0.57326 -29.8895,1.85316 -39.6975,5.11964 -78.0933,20.92289 -106.9459,48.3622 -11.1057,10.56396 -20.5409,22.57185 -28.4312,35.58337 -18.31,30.27227 -28.2394,65.95807 -31.4309,101.42795 -1.1018,11.7624 -1.5185,23.62127 -1.1229,35.44209 0.5935,17.73123 3.0143,35.37627 7.6832,52.48494 3.8908,14.25722 9.3826,28.13659 16.4739,41.09929 7.1456,13.28055 15.9852,25.61935 26.4852,36.46631 15.9623,16.4182 35.4062,29.04454 56.4991,38.03751 13.996,5.94157 28.7168,10.28581 43.6309,13.08355 26.0999,4.89602 52.8141,5.28086 79.3072,2.71599 11.3542,-1.09922 22.6676,-2.74083 33.8723,-4.79997 36.9022,-6.82007 73.4957,-18.38072 105.6463,-37.45542 8.0279,-4.76384 15.7783,-9.99599 23.1868,-15.73866 35.358,-27.41299 61.91,-66.64222 72.291,-110.02296 1.1534,-4.82008 2.1072,-9.69137 2.8513,-14.6033 6.258,-41.01748 -2.2445,-84.1136 -23.5897,-119.65286 z m -2.9428,3.75216 c -31.1334,-26.66242 -65.848,-49.27295 -102.8505,-66.98916 -4.544,-2.18591 -9.1296,-4.30144 -13.7535,-6.33813 -39.7713,-17.76668 -82.4553,-29.78868 -125.9247,-29.96162 -9.6599,-0.0384 -19.364,0.55135 -28.9903,1.78476 -38.5054,4.93368 -75.7682,20.1786 -103.8535,46.65648 -10.8044,10.19036 -20.0053,21.77713 -27.718,34.34174 -17.7945,29.14153 -27.5467,63.50547 -30.8114,97.70245 -1.1781,11.44009 -1.6807,22.98468 -1.3848,34.50044 0.4438,17.27365 2.6831,34.48126 7.1148,51.18038 3.693,13.91594 8.9466,27.47366 15.757,40.15207 6.9191,13.3141 15.5841,25.69874 25.9271,36.61026 15.6139,16.33369 34.6827,28.98075 55.3993,38.058 13.6793,5.94404 28.0747,10.33649 42.674,13.2197 25.5488,5.04562 51.7431,5.68346 77.7543,3.36818 11.1476,-0.99226 22.2614,-2.52814 33.2714,-4.48924 36.0489,-6.49537 71.8033,-17.70172 103.2311,-36.27051 7.8375,-4.63253 15.4048,-9.72256 22.6398,-15.30929 34.4806,-26.63645 60.4355,-64.73873 70.7573,-106.91459 1.1468,-4.68621 2.1007,-9.42261 2.8519,-14.19898 6.3855,-40.04764 -1.5783,-82.20018 -22.0913,-117.10294 z m -2.9429,3.75217 c -30.9278,-26.93376 -65.6855,-49.6536 -102.8079,-67.20299 -4.5139,-2.14851 -9.0691,-4.22496 -13.6623,-6.22114 -38.5744,-17.12034 -79.9483,-28.70162 -122.0699,-28.8705 -9.3604,-0.0375 -18.7629,0.52943 -28.0912,1.71635 -37.3133,4.74771 -73.4431,19.43431 -100.7611,44.95076 -10.5031,9.81676 -19.4697,20.98241 -27.0047,33.10011 -17.2791,28.0108 -26.8542,61.05287 -30.1921,93.97696 -1.2543,11.11777 -1.8428,22.34807 -1.6466,33.55879 0.2942,16.81606 2.3518,33.58623 6.5463,49.87582 3.4954,13.57465 8.5107,26.81071 15.0403,39.20483 6.6925,13.34766 15.1829,25.77813 25.3689,36.75422 15.2654,16.24917 33.9592,28.91696 54.2995,38.0785 13.3627,5.9465 27.4327,10.38716 41.7171,13.35585 24.9978,5.19521 50.672,6.08606 76.2014,4.02036 10.9411,-0.8853 21.8552,-2.31544 32.6706,-4.17851 35.1955,-6.17066 70.1107,-17.02273 100.8158,-35.0856 7.6471,-4.50122 15.0314,-9.44913 22.0928,-14.87992 33.6031,-25.8599 58.961,-62.83523 69.2236,-103.80622 1.1403,-4.55234 2.0941,-9.15386 2.8525,-13.79467 6.5129,-39.07778 -0.9122,-80.28676 -20.593,-114.553 z m -2.9429,3.75216 c -30.7222,-27.20508 -65.5231,-50.03423 -102.7654,-67.41681 -4.4836,-2.11112 -9.0085,-4.14848 -13.5711,-6.10415 -37.3773,-16.474 -77.4412,-27.61456 -118.2151,-27.77938 -9.0608,-0.0366 -18.1617,0.50751 -27.192,1.64794 -36.1213,4.56174 -71.118,18.69003 -97.6688,43.24503 -10.2017,9.44318 -18.9341,20.1877 -26.2914,31.85848 -16.7636,26.88007 -26.1615,58.60028 -29.5727,90.25147 -1.3305,10.79546 -2.0048,21.71148 -1.9085,32.61714 0.1446,16.35848 2.0207,32.69121 5.9779,48.57126 3.2977,13.23338 8.0748,26.14778 14.3236,38.25761 6.4659,13.38121 14.7817,25.85752 24.8107,36.89817 14.9169,16.16466 33.2357,28.85316 53.1998,38.09899 13.0459,5.94896 26.7906,10.43784 40.7601,13.49201 24.4467,5.3448 49.601,6.48866 74.6484,4.67254 10.7346,-0.77834 21.449,-2.10274 32.0699,-3.86778 34.3422,-5.84596 68.4181,-16.34373 98.4004,-33.90069 7.4568,-4.3699 14.6581,-9.17571 21.5458,-14.45055 32.7258,-25.08335 57.4865,-60.93173 67.69,-100.69786 1.1337,-4.41846 2.0876,-8.8851 2.853,-13.39034 6.6405,-38.10794 -0.2459,-78.37335 -19.0946,-112.00308 z m -2.9429,3.75216 c -30.5167,-27.47641 -65.3606,-50.41486 -102.7228,-67.63063 -4.4535,-2.07372 -8.9479,-4.072 -13.48,-5.98716 -36.1802,-15.82766 -74.934,-26.52749 -114.3602,-26.68827 -8.7614,-0.0357 -17.5606,0.4856 -26.2929,1.57954 -34.9292,4.37577 -68.7929,17.94574 -94.5764,41.53931 -9.9004,9.06958 -18.3985,19.39298 -25.5781,30.61685 -16.2482,25.74933 -25.4689,56.14768 -28.9533,86.52598 -1.4068,10.47313 -2.167,21.07488 -2.1704,31.67548 -0.01,15.9009 1.6894,31.7962 5.4094,47.26671 3.1,12.89209 7.6389,25.48484 13.6069,37.31037 6.2394,13.41477 14.3805,25.93691 24.2526,37.04213 14.5683,16.08014 32.5121,28.78937 52.0999,38.11949 12.7293,5.95142 26.1486,10.48851 39.8032,13.62816 23.8956,5.49439 48.53,6.89125 73.0955,5.32472 10.5281,-0.67138 21.0428,-1.89004 31.4691,-3.55705 33.4888,-5.52125 66.7255,-15.66474 95.9851,-32.71578 7.2664,-4.23859 14.2846,-8.90228 20.9988,-14.02118 31.8484,-24.3068 56.012,-59.02824 66.1563,-97.58949 1.1271,-4.28459 2.0811,-8.61635 2.8536,-12.98602 6.7679,-37.13809 0.4202,-76.45993 -17.5963,-109.45316 z m -2.9428,3.75216 c -30.3112,-27.74774 -65.1982,-50.7955 -102.6803,-67.84445 -4.4233,-2.03633 -8.8874,-3.99552 -13.3889,-5.87018 -34.9832,-15.18131 -72.4269,-25.44042 -110.5053,-25.59714 -8.4619,-0.0348 -16.9595,0.46368 -25.3938,1.51113 -33.7371,4.1898 -66.4678,17.20145 -91.4841,39.83359 -9.599,8.69598 -17.8628,18.59826 -24.8648,29.37522 -15.7327,24.61859 -24.7762,53.69508 -28.3339,82.80048 -1.483,10.15082 -2.3291,20.43829 -2.4322,30.73383 -0.1547,15.44332 1.3582,30.90118 4.841,45.96215 2.9022,12.55081 7.2029,24.8219 12.89,36.36315 6.0129,13.44831 13.9794,26.01629 23.6945,37.18608 14.2198,15.99562 31.7887,28.72558 51.0002,38.13998 12.4125,5.95389 25.5064,10.53919 38.8462,13.76432 23.3446,5.64398 47.459,7.29385 71.5426,5.9769 10.3215,-0.56441 20.6365,-1.67735 30.8682,-3.24632 32.6355,-5.19654 65.033,-14.98574 93.5699,-31.53086 7.076,-4.10728 13.9112,-8.62886 20.4517,-13.59182 30.971,-23.53025 54.5375,-57.12474 64.6227,-94.48113 1.1206,-4.1507 2.0746,-8.34758 2.8542,-12.58169 6.8954,-36.16824 1.0864,-74.54652 -16.0979,-106.90324 z m -2.9429,3.75217 c -30.1056,-28.01907 -65.0357,-51.17614 -102.6378,-68.05828 -4.393,-1.99893 -8.8268,-3.91904 -13.2976,-5.75319 -33.7862,-14.53497 -69.9199,-24.35336 -106.6506,-24.50602 -8.1623,-0.0339 -16.3583,0.44176 -24.4946,1.44272 -32.5451,4.00384 -64.1427,16.45716 -88.3917,38.12787 -9.2977,8.32239 -17.3273,17.80354 -24.1515,28.13359 -15.2173,23.48785 -24.0836,51.24248 -27.7146,79.07498 -1.5592,9.82851 -2.4911,19.8017 -2.694,29.79219 -0.3044,14.98573 1.0269,30.00616 4.2725,44.65758 2.7046,12.20953 6.767,24.15897 12.1733,35.41592 5.7863,13.48187 13.5782,26.09569 23.1363,37.33004 13.8714,15.91111 31.0652,28.66178 49.9004,38.16048 12.0959,5.95635 24.8644,10.58986 37.8893,13.90047 22.7935,5.79356 46.388,7.69645 69.9897,6.62907 10.115,-0.45744 20.2303,-1.46464 30.2674,-2.93558 31.7822,-4.87184 63.3404,-14.30675 91.1546,-30.34595 6.8855,-3.97597 13.5378,-8.35543 19.9047,-13.16245 30.0936,-22.7537 53.063,-55.22124 63.089,-91.37276 1.114,-4.01683 2.068,-8.07883 2.8548,-12.17737 7.0228,-35.1984 1.7526,-72.63311 -14.5996,-104.35331 z m -2.9429,3.75216 c -29.9,-28.2904 -64.8732,-51.55678 -102.5952,-68.2721 -4.3629,-1.96153 -8.7663,-3.84255 -13.2065,-5.6362 -32.5891,-13.88863 -67.4128,-23.26629 -102.7957,-23.41491 -7.8629,-0.033 -15.7572,0.41985 -23.5954,1.37432 -31.3531,3.81787 -61.8177,15.71287 -85.2994,36.42215 -8.9964,7.94879 -16.7917,17.00882 -23.4383,26.89196 -14.7018,22.35712 -23.3909,48.78988 -27.0952,75.34949 -1.6354,9.50619 -2.6532,19.1651 -2.9559,28.85053 -0.4539,14.52815 0.6958,29.11114 3.7041,43.35303 2.5069,11.86824 6.3311,23.49603 11.4566,34.46869 5.5597,13.51542 13.177,26.17507 22.5781,37.47399 13.5229,15.82659 30.3417,28.59799 48.8007,38.18097 11.7791,5.95881 24.2223,10.64054 36.9323,14.03663 22.2425,5.94315 45.317,8.09905 68.4367,7.28125 9.9085,-0.35048 19.8242,-1.25194 29.6667,-2.62485 30.9288,-4.54713 61.6478,-13.62775 88.7392,-29.16104 6.6952,-3.84466 13.1645,-8.082 19.3578,-12.73308 29.2162,-21.97715 51.5885,-53.31775 61.5553,-88.26439 1.1074,-3.88296 2.0615,-7.81008 2.8554,-11.77305 7.1503,-34.22855 2.4187,-70.71969 -13.1013,-101.80339 z m -2.9429,3.75216 c -29.6945,-28.56172 -64.7108,-51.93741 -102.5526,-68.48592 -4.3327,-1.92414 -8.7057,-3.76607 -13.1154,-5.51921 -31.3921,-13.24229 -64.9057,-22.17923 -98.9408,-22.32379 -7.5634,-0.0321 -15.1561,0.39793 -22.6963,1.30591 -30.161,3.6319 -59.4926,14.96859 -82.2071,34.71643 -8.6949,7.57519 -16.2561,16.21411 -22.7249,25.65033 -14.1864,21.22638 -22.6984,46.33728 -26.4758,71.62399 -1.7117,9.18387 -2.8154,18.52851 -3.2178,27.90888 -0.6036,14.07057 0.3645,28.21612 3.1356,42.04847 2.3092,11.52696 5.8952,22.83309 10.7399,33.52146 5.3332,13.54898 12.7758,26.25447 22.0199,37.61794 13.1744,15.74209 29.6182,28.53421 47.7009,38.20148 11.4625,5.96127 23.5802,10.69121 35.9754,14.17278 21.6914,6.09274 44.2459,8.50164 66.8838,7.93343 9.702,-0.24352 19.4179,-1.03925 29.0658,-2.31412 30.0755,-4.22242 59.9553,-12.94876 86.324,-27.97613 6.5048,-3.71334 12.791,-7.80857 18.8107,-12.30371 28.3388,-21.20061 50.114,-51.41425 60.0217,-85.15603 1.1009,-3.74908 2.055,-7.54131 2.856,-11.36873 7.2777,-33.25869 3.0849,-68.80627 -11.603,-99.25346 z m -2.9428,3.75216 c -29.489,-28.83305 -64.5484,-52.31805 -102.5102,-68.69974 -4.3024,-1.88674 -8.6451,-3.68959 -13.0241,-5.40222 -30.1951,-12.59595 -62.3987,-21.09217 -95.0861,-21.23267 -7.2638,-0.0312 -14.5549,0.37601 -21.7971,1.2375 -28.969,3.44593 -57.1674,14.2243 -79.1147,33.01071 -8.3936,7.2016 -15.7205,15.41939 -22.0117,24.4087 -13.6709,20.09564 -22.0057,43.88468 -25.8564,67.8985 -1.7879,8.86155 -2.9774,17.89191 -3.4796,26.96723 -0.7533,13.61298 0.033,27.3211 2.5671,40.74391 2.1116,11.18567 5.4592,22.17015 10.0232,32.57423 5.1066,13.58253 12.3746,26.33385 21.4617,37.76189 12.8259,15.65757 28.8947,28.47041 46.6012,38.22198 11.1457,5.96373 22.9381,10.74188 35.0183,14.30892 21.1405,6.24234 43.175,8.90425 65.331,8.58562 9.4954,-0.13656 19.0117,-0.82655 28.465,-2.00339 29.2222,-3.89772 58.2627,-12.26976 83.9087,-26.79122 6.3144,-3.58203 12.4176,-7.53515 18.2637,-11.87434 27.4614,-20.42406 48.6395,-49.51076 58.488,-82.04766 1.0943,-3.61521 2.0485,-7.27256 2.8566,-10.96441 7.4051,-32.28885 3.7511,-66.89286 -10.1046,-96.70354 z m -2.9429,3.75216 c -29.2834,-29.10438 -64.3859,-52.69868 -102.4676,-68.91356 -4.2723,-1.84935 -8.5846,-3.61311 -12.933,-5.28523 -28.998,-11.94961 -59.8916,-20.0051 -91.2312,-20.14156 -6.9644,-0.0303 -13.9538,0.3541 -20.898,1.1691 -27.7769,3.25997 -54.8423,13.48001 -76.0223,31.30499 -8.0923,6.828 -15.1849,14.62467 -21.2985,23.16707 -13.1554,18.9649 -21.313,41.43208 -25.237,64.173 -1.8641,8.53924 -3.1395,17.25532 -3.7414,26.02558 -0.9029,13.1554 -0.2979,26.42608 1.9987,39.43935 1.9138,10.8444 5.0232,21.50722 9.3063,31.62701 4.8801,13.61608 11.9735,26.41324 20.9036,37.90584 12.4774,15.57306 28.1712,28.40662 45.5014,38.24247 10.8291,5.96619 22.2961,10.79255 34.0614,14.44508 20.5894,6.39193 42.104,9.30685 63.7781,9.2378 9.2889,-0.0296 18.6054,-0.61385 27.8642,-1.69267 28.3688,-3.573 56.5701,-11.59076 81.4934,-25.6063 6.124,-3.45072 12.0442,-7.26172 17.7167,-11.44497 26.584,-19.64751 47.165,-47.60726 56.9543,-78.93929 1.0877,-3.48134 2.0419,-7.00381 2.8572,-10.56009 7.5326,-31.319 4.4172,-64.97944 -8.6063,-94.15362 z m -2.9429,3.75217 c -29.0779,-29.37571 -64.2234,-53.07933 -102.425,-69.12739 -4.2421,-1.81195 -8.5241,-3.53663 -12.8419,-5.16824 -27.801,-11.30327 -57.3845,-18.91804 -87.3764,-19.05044 -6.6648,-0.0294 -13.3526,0.33219 -19.9988,1.10069 -26.5849,3.074 -52.5172,12.73572 -72.93,29.59926 -7.7909,6.45441 -14.6493,13.82996 -20.5851,21.92545 -12.64,17.83416 -20.6204,38.97948 -24.6176,60.4475 -1.9404,8.21692 -3.3017,16.61872 -4.0033,25.08393 -1.0526,12.69782 -0.6292,25.53107 1.4302,38.1348 1.7161,10.50311 4.5873,20.84427 8.5896,30.67977 4.6536,13.64964 11.5723,26.49263 20.3454,38.0498 12.129,15.48854 27.4477,28.34283 44.4017,38.26297 10.5123,5.96865 21.654,10.84322 33.1044,14.58123 20.0383,6.54152 41.033,9.70944 62.2252,9.88998 9.0823,0.0774 18.1992,-0.40116 27.2633,-1.38194 27.5155,-3.2483 54.8776,-10.91176 79.0781,-24.42138 5.9337,-3.31941 11.6708,-6.9883 17.1697,-11.01561 25.7066,-18.87096 45.6905,-45.70376 55.4207,-75.83093 1.0811,-3.34746 2.0354,-6.73504 2.8577,-10.15576 7.6601,-30.34916 5.0835,-63.06603 -7.1079,-91.60369 z m -2.9428,3.75216 c -28.8724,-29.64704 -64.061,-53.45996 -102.3826,-69.34121 -4.2118,-1.77456 -8.4634,-3.46015 -12.7507,-5.05125 -26.6039,-10.65693 -54.8774,-17.83098 -83.5215,-17.95932 -6.3653,-0.0285 -12.7515,0.31027 -19.0997,1.03228 -25.3928,2.88803 -50.1921,11.99144 -69.8376,27.89354 -7.4896,6.08081 -14.1137,13.03524 -19.8719,20.68382 -12.1245,16.70342 -19.9277,36.52688 -23.9982,56.72201 -2.0166,7.8946 -3.4637,15.98212 -4.2652,24.14228 -1.2022,12.24023 -0.9603,24.63604 0.8618,36.83023 1.5185,10.16183 4.1514,20.18134 7.8729,29.73255 4.427,13.68319 11.1711,26.57201 19.7873,38.19375 11.7804,15.40402 26.7241,28.27903 43.3018,38.28346 10.1957,5.97112 21.0119,10.8939 32.1475,14.71739 19.4873,6.6911 39.962,10.11204 60.6722,10.54216 8.8759,0.18433 17.7931,-0.18846 26.6626,-1.07121 26.6621,-2.92359 53.185,-10.23277 76.6628,-23.23647 5.7433,-3.1881 11.2974,-6.71487 16.6227,-10.58624 24.8292,-18.09441 44.216,-43.80027 53.887,-72.72256 1.0746,-3.21359 2.0289,-6.46629 2.8583,-9.75144 7.7876,-29.37931 5.7496,-61.15262 -5.6095,-89.05377 z m -2.9429,3.75216 c -28.6668,-29.91837 -63.8986,-53.8406 -102.34,-69.55503 -4.1817,-1.73716 -8.4029,-3.38367 -12.6595,-4.93426 -25.4069,-10.01059 -52.3704,-16.74391 -79.6667,-16.86821 -6.0659,-0.0276 -12.1504,0.28836 -18.2006,0.96387 -24.2007,2.70207 -47.867,11.24716 -66.7453,26.18783 -7.1882,5.70722 -13.578,12.24052 -19.1585,19.44219 -11.6091,15.57269 -19.2351,34.07428 -23.3789,52.99651 -2.0928,7.57229 -3.6258,15.34553 -4.527,23.20063 -1.3518,11.78264 -1.2916,23.74102 0.2933,35.52568 1.3208,9.82054 3.7155,19.51839 7.1562,28.78531 4.2004,13.71674 10.7698,26.65141 19.2291,38.33771 11.4319,15.31951 26.0006,28.21524 42.202,38.30396 9.8791,5.97358 20.3699,10.94457 31.1906,14.85354 18.9362,6.84069 38.891,10.51464 59.1193,11.19433 8.6693,0.2913 17.3868,0.0243 26.0618,-0.76047 25.8088,-2.59888 51.4924,-9.55377 74.2475,-22.05156 5.5528,-3.05678 10.924,-6.44144 16.0756,-10.15686 23.9519,-17.31787 42.7416,-41.89678 52.3534,-69.6142 1.068,-3.07972 2.0224,-6.19754 2.8589,-9.34713 7.915,-28.40945 6.4158,-59.23919 -4.1112,-86.50384 z m -2.9429,3.75216 c -28.4613,-30.18969 -63.7361,-54.22123 -102.2975,-69.76885 -4.1514,-1.69976 -8.3423,-3.30719 -12.5683,-4.81727 -24.2099,-9.36425 -49.8633,-15.65685 -75.8119,-15.77709 -5.7663,-0.0267 -11.5492,0.26644 -17.3013,0.89546 -23.0088,2.5161 -45.542,10.50287 -63.653,24.48211 -6.8869,5.33362 -13.0425,11.4458 -18.4453,18.20055 -11.0936,14.44196 -18.5425,31.62169 -22.7594,49.27103 -2.1691,7.24997 -3.7879,14.70893 -4.7889,22.25897 -1.5015,11.32506 -1.6228,22.84601 -0.2752,34.22112 1.1231,9.47926 3.2796,18.85546 6.4394,27.83809 3.9739,13.75029 10.3687,26.73079 18.671,38.48166 11.0834,15.23499 25.2771,28.15145 41.1023,38.32445 9.5623,5.97604 19.7278,10.99525 30.2336,14.9897 18.3852,6.99028 37.8199,10.91724 57.5664,11.84651 8.4628,0.39827 16.9806,0.23695 25.461,-0.44974 24.9554,-2.27418 49.7999,-8.87478 71.8322,-20.86665 5.3624,-2.92547 10.5505,-6.16802 15.5286,-9.72749 23.0744,-16.54132 41.267,-39.99329 50.8197,-66.50584 1.0614,-2.94584 2.0158,-5.92877 2.8595,-8.9428 8.0425,-27.43961 7.082,-57.32578 -2.6129,-83.95392 z m -2.9429,3.75217 c -28.2557,-30.46103 -63.5736,-54.60187 -102.2549,-69.98268 -4.1212,-1.66237 -8.2817,-3.23071 -12.4772,-4.70028 -23.0128,-8.71791 -47.3562,-14.56979 -71.957,-14.68597 -5.4669,-0.0258 -10.9481,0.24452 -16.4022,0.82705 -21.8167,2.33014 -43.2169,9.75858 -60.5606,22.77639 -6.5856,4.96002 -12.5069,10.65108 -17.732,16.95892 -10.5782,13.31122 -17.8499,29.16909 -22.1401,45.54553 -2.2453,6.92765 -3.95,14.07234 -5.0507,21.31733 -1.6512,10.86747 -1.9541,21.95098 -0.8436,32.91656 0.9254,9.13797 2.8436,18.19252 5.7226,26.89085 3.7474,13.78385 9.9675,26.81019 18.1128,38.62562 10.7349,15.15048 24.5536,28.08766 40.0025,38.34495 9.2457,5.9785 19.0858,11.04592 29.2767,15.12585 17.8341,7.13987 36.7489,11.31983 56.0135,12.49869 8.2562,0.50523 16.5743,0.44964 24.8601,-0.13901 24.1021,-1.94947 48.1074,-8.19578 69.4169,-19.68174 5.1721,-2.79416 10.1772,-5.89459 14.9817,-9.29812 22.197,-15.76478 39.7925,-38.08979 49.286,-63.39747 1.0549,-2.81197 2.0093,-5.66002 2.8601,-8.53848 8.1699,-26.46976 7.7481,-55.41237 -1.1146,-81.40399 z m -2.9428,3.75216 c -28.0502,-30.73235 -63.4112,-54.98251 -102.2124,-70.1965 -4.0911,-1.62497 -8.2212,-3.15422 -12.3861,-4.5833 -21.8157,-8.07156 -44.8491,-13.48271 -68.1021,-13.59485 -5.1674,-0.0249 -10.347,0.22261 -15.5031,0.75865 -20.6246,2.14417 -40.8918,9.01429 -57.4683,21.07067 -6.2842,4.58643 -11.9713,9.85636 -17.0187,15.71729 -10.0627,12.18048 -17.1572,26.71649 -21.5207,41.82003 -2.3215,6.60534 -4.1121,13.43575 -5.3126,20.37568 -1.8007,10.40989 -2.2852,21.05597 -1.412,31.612 0.7277,8.7967 2.4077,17.52958 5.0059,25.94363 3.5208,13.8174 9.5663,26.88957 17.5546,38.76957 10.3865,15.06596 23.8301,28.02386 38.9028,38.36545 8.9289,5.98096 18.4436,11.09659 28.3197,15.26199 17.283,7.28947 35.6779,11.72244 54.4606,13.15088 8.0497,0.61219 16.1681,0.66234 24.2593,0.17172 23.2488,-1.62476 46.4148,-7.51679 67.0016,-18.49683 4.9817,-2.66284 9.8038,-5.62116 14.4346,-8.86875 21.3197,-14.98823 38.3181,-36.18629 47.7524,-60.2891 1.0483,-2.67809 2.0028,-5.39127 2.8607,-8.13416 8.2974,-25.49992 8.4143,-53.49895 0.3838,-78.85407 z m -2.9429,3.75216 c -27.8447,-31.00368 -63.2487,-55.36314 -102.1699,-70.41032 -4.0608,-1.58758 -8.1606,-3.07774 -12.2948,-4.46631 -20.6188,-7.42522 -42.3421,-12.39565 -64.2474,-12.50373 -4.8678,-0.024 -9.7458,0.20069 -14.6039,0.69024 -19.4326,1.9582 -38.5667,8.27001 -54.3759,19.36495 -5.9829,4.21283 -11.4357,9.06165 -16.3054,14.47566 -9.5473,11.04974 -16.4646,24.26389 -20.9013,38.09454 -2.3978,6.28302 -4.2742,12.79915 -5.5745,19.43402 -1.9504,9.95231 -2.6165,20.16095 -1.9805,30.30744 0.53,8.45542 1.9718,16.86665 4.2892,24.9964 3.2942,13.85096 9.1651,26.96897 16.9964,38.91353 10.038,14.98145 23.1066,27.96007 37.803,38.38594 8.6123,5.98342 17.8016,11.14727 27.3628,15.39815 16.732,7.43906 34.6069,12.12504 52.9076,13.80306 7.8432,0.71915 15.7619,0.87504 23.6586,0.48245 22.3954,-1.30006 44.7222,-6.83779 64.5863,-17.31192 4.7913,-2.53153 9.4303,-5.34773 13.8876,-8.43938 20.4422,-14.21168 36.8435,-34.2828 46.2187,-57.18074 1.0417,-2.54421 1.9963,-5.1225 2.8613,-7.72983 8.4248,-24.53007 9.0805,-51.58554 1.8821,-76.30415 z m -2.9429,3.75216 c -27.6391,-31.27501 -63.0863,-55.74378 -102.1273,-70.62414 -4.0307,-1.55018 -8.1001,-3.00126 -12.2037,-4.34932 -19.4217,-6.77888 -39.835,-11.30858 -60.3925,-11.41261 -4.5684,-0.0231 -9.1447,0.17877 -13.7048,0.62183 -18.2405,1.77223 -36.2416,7.52572 -51.2835,17.65922 -5.6816,3.83924 -10.9001,8.26694 -15.5922,13.23404 -9.0318,9.919 -15.7719,21.81129 -20.2819,34.36904 -2.474,5.96071 -4.4363,12.16256 -5.8363,18.49238 -2.1,9.49472 -2.9477,19.26592 -2.549,29.00288 0.3323,8.11413 1.5359,16.20371 3.5724,24.04917 3.0678,13.88451 8.764,27.04835 16.4383,39.05748 9.6895,14.89693 22.3831,27.89628 36.7033,38.40644 8.2955,5.98588 17.1595,11.19794 26.4057,15.5343 16.181,7.58864 33.536,12.52763 51.3548,14.45524 7.6367,0.82611 15.3557,1.08773 23.0577,0.79318 21.5421,-0.97535 43.0297,-6.1588 62.1711,-16.127 4.6009,-2.40023 9.0569,-5.07431 13.3406,-8.01002 19.5648,-13.43513 35.369,-32.3793 44.685,-54.07237 1.0351,-2.41034 1.9897,-4.85375 2.8619,-7.32551 8.5523,-23.56022 9.7466,-49.67213 3.3804,-73.75423 z m -2.9429,3.75217 c -27.4335,-31.54634 -62.9238,-56.12442 -102.0847,-70.83797 -4.0005,-1.51279 -8.0395,-2.92478 -12.1126,-4.23233 -18.2246,-6.13254 -37.3279,-10.22152 -56.5377,-10.3215 -4.2688,-0.0222 -8.5435,0.15686 -12.8056,0.55343 -17.0484,1.58626 -33.9165,6.78143 -48.1912,15.9535 -5.3802,3.46565 -10.3645,7.47222 -14.8788,11.99241 -8.5164,8.78827 -15.0793,19.35869 -19.6626,30.64355 -2.5502,5.63838 -4.5984,11.52596 -6.0981,17.55072 -2.2497,9.03714 -3.279,18.37091 -3.1174,27.69832 0.1346,7.77285 1.0999,15.54077 2.8556,23.10194 2.8412,13.91807 8.3628,27.12774 15.8801,39.20144 9.341,14.81242 21.6596,27.83248 35.6035,38.42693 7.9789,5.98835 16.5174,11.24861 25.4488,15.67046 15.63,7.73823 32.465,12.93023 49.8019,15.10742 7.4301,0.93308 14.9495,1.30043 22.4569,1.10391 20.6888,-0.65065 41.3371,-5.4798 59.7557,-14.94209 4.4106,-2.26891 8.6836,-4.80089 12.7936,-7.58065 18.6875,-12.65858 33.8945,-30.4758 43.1514,-50.96401 1.0286,-2.27646 1.9832,-4.58499 2.8624,-6.92119 8.6798,-22.59037 10.4129,-47.7587 4.8788,-71.20429 z m -2.9428,3.75216 c -27.2281,-31.81767 -62.7614,-56.50506 -102.0423,-71.05179 -3.9702,-1.47539 -7.9789,-2.8483 -12.0213,-4.11534 -17.0277,-5.4862 -34.8209,-9.13446 -52.6829,-9.23038 -3.9693,-0.0213 -7.9424,0.13494 -11.9065,0.48502 -15.8564,1.4003 -31.5914,6.03714 -45.0988,14.24778 -5.0789,3.09205 -9.8289,6.6775 -14.1656,10.75078 -8.0009,7.65753 -14.3867,16.90609 -19.0432,26.91805 -2.6264,5.31607 -4.7604,10.88936 -6.36,16.60907 -2.3993,8.57956 -3.6101,17.47589 -3.6858,26.39377 -0.063,7.43156 0.664,14.87783 2.1389,22.15471 2.6146,13.95161 7.9616,27.20713 15.322,39.34539 8.9924,14.7279 20.936,27.76869 34.5037,38.44743 7.6621,5.99081 15.8753,11.29928 24.4918,15.80661 15.0789,7.88782 31.3939,13.33283 48.249,15.7596 7.2236,1.04004 14.5432,1.51313 21.8561,1.41463 19.8354,-0.32593 39.6445,-4.8008 57.3404,-13.75717 4.2201,-2.1376 8.3102,-4.52746 12.2466,-7.15128 17.81,-11.88203 32.42,-28.57231 41.6177,-47.85564 1.022,-2.14259 1.9767,-4.31624 2.863,-6.51687 8.8073,-21.62052 11.079,-45.84529 6.3772,-68.65437 z m -2.9429,3.75216 c -27.0225,-32.089 -62.5989,-56.88569 -101.9997,-71.26561 -3.9401,-1.43799 -7.9184,-2.77182 -11.9302,-3.99835 -15.8306,-4.83986 -32.3137,-8.04739 -48.828,-8.13926 -3.6699,-0.0204 -7.3412,0.11303 -11.0073,0.41661 -14.6644,1.21433 -29.2664,5.29286 -42.0066,12.54206 -4.7775,2.71845 -9.2932,5.88278 -13.4523,9.50915 -7.4854,6.52679 -13.694,14.45349 -18.4237,23.19256 -2.7027,4.99375 -4.9226,10.25276 -6.6219,15.66741 -2.5489,8.12198 -3.9414,16.58088 -4.2543,25.08921 -0.2608,7.09028 0.2281,14.2149 1.4222,21.20748 2.388,13.98517 7.5604,27.28652 14.7638,39.48935 8.644,14.64338 20.2126,27.7049 33.4039,38.46792 7.3455,5.99327 15.2333,11.34996 23.5349,15.94277 14.5279,8.03741 30.3229,13.73543 46.696,16.41177 7.0171,1.14701 14.1371,1.72583 21.2554,1.72537 18.982,-0.001 37.9519,-4.1218 54.9251,-12.57226 4.0297,-2.00628 7.9367,-4.25403 11.6995,-6.72191 16.9327,-11.10548 30.9456,-26.66881 40.0841,-44.74727 1.0154,-2.00872 1.9701,-4.04748 2.8636,-6.11255 8.9347,-20.65067 11.7452,-43.93188 7.8755,-66.10445 z" />
  </g>
</svg>
